<svg xmlns="http://www.w3.org/2000/svg" viewBox="0 0 360 360"><defs><style>.cls-1{fill:#174579;}.cls-1,.cls-2,.cls-3,.cls-4,.cls-5,.cls-6{fill-rule:evenodd;}.cls-2{fill:#8c8b96;}.cls-3{fill:#bfbfc6;}.cls-4{fill:#febe10;}.cls-5{fill:#fed206;}.cls-6{fill:#fff;}</style></defs><title>TCS_Blue_360x360</title><g id="Triangles"><polygon class="cls-1" points="179.99 350 34.5 266.36 34.5 93.56 180 10 325.5 93.56 325.5 265.65 179.99 350"/><polygon class="cls-2" points="172.88 112.01 118.28 142.92 118.28 205.92 125.4 201.69 125.4 147.54 172.88 120.66 172.88 112.01"/><polygon class="cls-2" points="187.13 112.01 187.13 120.67 234.61 147.54 234.6 201.88 241.72 205.92 241.72 142.92 187.13 112.01"/><polyline class="cls-2" points="133.82 215.29 125.4 220.06 180 250.97 234.61 220.06 225.08 214.67 180 241.46"/><polygon class="cls-3" points="118.27 205.92 63.67 174.98 63.67 112.01 118.27 81.1 172.88 112.01 118.27 142.92 118.27 205.92"/><polygon class="cls-3" points="180 313.98 125.4 283.04 125.4 220.06 180 250.97 180 313.98"/><polygon class="cls-3" points="187.12 112.01 241.72 81.1 296.33 112.01 241.72 142.92 187.12 112.01"/><polygon class="cls-4" points="180 241.46 125.4 210.52 125.4 147.54 180 116.64 234.6 147.54 180 178.45 180 241.46"/><polygon class="cls-5" points="234.6 147.54 180 178.45 180 241.46 234.59 209.01 234.6 147.54"/><polygon class="cls-6" points="234.6 220.06 180 250.97 180 313.98 234.59 281.53 234.6 220.06"/><polygon class="cls-6" points="296.33 112.01 241.72 142.92 241.72 205.92 296.31 173.48 296.33 112.01"/></g></svg>