<svg xmlns="http://www.w3.org/2000/svg" version="1.1" xmlns:xlink="http://www.w3.org/1999/xlink" width="512" height="512" x="0" y="0" viewBox="0 0 24 25" style="enable-background:new 0 0 512 512" xml:space="preserve" class=""><g><g fill="#000"><path d="M11.671 20.882H9.329c-.668 0-1.296-.26-1.768-.732l-3-3c-.472-.472-.732-1.1-.732-1.768s.26-1.295.732-1.768L16.146 2.03a.514.514 0 0 1 .707 0l7 7a.5.5 0 0 1 0 .707L13.439 20.15c-.472.472-1.1.732-1.768.732zM16.5 3.09 5.268 14.322c-.283.283-.439.66-.439 1.061s.156.777.439 1.061l3 3c.284.283.66.44 1.061.44h2.343c.401 0 .777-.157 1.061-.44l10.06-10.062z" fill="#000000" opacity="1" data-original="#000000" class=""></path><path d="M15.5 17.882a.502.502 0 0 1-.354-.146l-7-7a.5.5 0 0 1 .707-.707l7 7a.5.5 0 0 1-.353.853zM5.5 20.882h-5a.5.5 0 0 1 0-1h5a.5.5 0 0 1 0 1zM14.5 22.882h-9a.5.5 0 0 1 0-1h9a.5.5 0 0 1 0 1z" fill="#000000" opacity="1" data-original="#000000" class=""></path></g></g></svg>