<?xml version="1.0" encoding="utf-8" standalone="no"?>
<!DOCTYPE svg PUBLIC "-//W3C//DTD SVG 1.1//EN"
  "http://www.w3.org/Graphics/SVG/1.1/DTD/svg11.dtd">
<svg xmlns:xlink="http://www.w3.org/1999/xlink" width="360pt" height="360pt" viewBox="0 0 360 360" xmlns="http://www.w3.org/2000/svg" version="1.1">
 <metadata>
  <rdf:RDF xmlns:dc="http://purl.org/dc/elements/1.1/" xmlns:cc="http://creativecommons.org/ns#" xmlns:rdf="http://www.w3.org/1999/02/22-rdf-syntax-ns#">
   <cc:Work>
    <dc:type rdf:resource="http://purl.org/dc/dcmitype/StillImage"/>
    <dc:date>2024-11-19T14:50:47.541907</dc:date>
    <dc:format>image/svg+xml</dc:format>
    <dc:creator>
     <cc:Agent>
      <dc:title>Matplotlib v3.9.2, https://matplotlib.org/</dc:title>
     </cc:Agent>
    </dc:creator>
   </cc:Work>
  </rdf:RDF>
 </metadata>
 <defs>
  <style type="text/css">*{stroke-linejoin: round; stroke-linecap: butt}</style>
 </defs>
 <g id="figure_1">
  <g id="patch_1">
   <path d="M 0 360 
L 360 360 
L 360 0 
L 0 0 
z
" style="fill: #ffffff"/>
  </g>
  <g id="axes_1">
   <g id="patch_2">
    <path d="M 45 320.4 
L 324 320.4 
L 324 43.2 
L 45 43.2 
z
" style="fill: #ffffff"/>
   </g>
   <g id="EdgeCollection_1">
    <path d="M 95.407744 201.478278 
L 175.768285 283.798724 
L 95.407744 201.478278 
L 90.040941 206.717307 
L 84.929686 190.744672 
L 100.774547 196.239249 
L 95.407744 201.478278 
" clip-path="url(#peaa05a6647)" style="fill: #bebebe; stroke: #bebebe; stroke-width: 2"/>
    <path d="M 76.197971 98.356604 
L 76.197971 169.3 
L 76.197971 98.356604 
L 68.697971 98.356604 
L 76.197971 83.356604 
L 83.697971 98.356604 
L 76.197971 98.356604 
" clip-path="url(#peaa05a6647)" style="fill: #bebebe; stroke: #bebebe; stroke-width: 2"/>
    <path d="M 273.592256 201.478278 
L 193.231715 283.798724 
L 273.592256 201.478278 
L 268.225453 196.239249 
L 284.070314 190.744672 
L 278.959059 206.717307 
L 273.592256 201.478278 
" clip-path="url(#peaa05a6647)" style="fill: #bebebe; stroke: #bebebe; stroke-width: 2"/>
   </g>
   <g id="VertexCollection_1">
    <path d="M 184.5 305.243396 
C 187.815039 305.243396 190.994748 303.926317 193.338835 301.582231 
C 195.682921 299.238145 197 296.058435 197 292.743396 
C 197 289.428357 195.682921 286.248648 193.338835 283.904561 
C 190.994748 281.560475 187.815039 280.243396 184.5 280.243396 
C 181.184961 280.243396 178.005252 281.560475 175.661165 283.904561 
C 173.317079 286.248648 172 289.428357 172 292.743396 
C 172 296.058435 173.317079 299.238145 175.661165 301.582231 
C 178.005252 303.926317 181.184961 305.243396 184.5 305.243396 
z
" clip-path="url(#peaa05a6647)" style="fill: #ff0000; stroke: #000000"/>
    <path d="M 76.197971 194.3 
C 79.51301 194.3 82.69272 192.982921 85.036806 190.638835 
C 87.380893 188.294748 88.697971 185.115039 88.697971 181.8 
C 88.697971 178.484961 87.380893 175.305252 85.036806 172.961165 
C 82.69272 170.617079 79.51301 169.3 76.197971 169.3 
C 72.882933 169.3 69.703223 170.617079 67.359137 172.961165 
C 65.01505 175.305252 63.697971 178.484961 63.697971 181.8 
C 63.697971 185.115039 65.01505 188.294748 67.359137 190.638835 
C 69.703223 192.982921 72.882933 194.3 76.197971 194.3 
z
" clip-path="url(#peaa05a6647)" style="fill: #add8e6; stroke: #000000"/>
    <path d="M 76.197971 83.356604 
C 79.51301 83.356604 82.69272 82.039525 85.036806 79.695439 
C 87.380893 77.351352 88.697971 74.171643 88.697971 70.856604 
C 88.697971 67.541565 87.380893 64.361855 85.036806 62.017769 
C 82.69272 59.673683 79.51301 58.356604 76.197971 58.356604 
C 72.882933 58.356604 69.703223 59.673683 67.359137 62.017769 
C 65.01505 64.361855 63.697971 67.541565 63.697971 70.856604 
C 63.697971 74.171643 65.01505 77.351352 67.359137 79.695439 
C 69.703223 82.039525 72.882933 83.356604 76.197971 83.356604 
z
" clip-path="url(#peaa05a6647)" style="fill: #add8e6; stroke: #000000"/>
    <path d="M 292.802029 194.3 
C 296.117067 194.3 299.296777 192.982921 301.640863 190.638835 
C 303.98495 188.294748 305.302029 185.115039 305.302029 181.8 
C 305.302029 178.484961 303.98495 175.305252 301.640863 172.961165 
C 299.296777 170.617079 296.117067 169.3 292.802029 169.3 
C 289.48699 169.3 286.30728 170.617079 283.963194 172.961165 
C 281.619107 175.305252 280.302029 178.484961 280.302029 181.8 
C 280.302029 185.115039 281.619107 188.294748 283.963194 190.638835 
C 286.30728 192.982921 289.48699 194.3 292.802029 194.3 
z
" clip-path="url(#peaa05a6647)" style="fill: #add8e6; stroke: #000000"/>
   </g>
   <g id="text_1">
    <g clip-path="url(#peaa05a6647)">
     <!-- derived data -->
     <g transform="translate(146.391562 321.054646) scale(0.12 -0.12)">
      <defs>
       <path id="DejaVuSans-64" d="M 2906 2969 
L 2906 4863 
L 3481 4863 
L 3481 0 
L 2906 0 
L 2906 525 
Q 2725 213 2448 61 
Q 2172 -91 1784 -91 
Q 1150 -91 751 415 
Q 353 922 353 1747 
Q 353 2572 751 3078 
Q 1150 3584 1784 3584 
Q 2172 3584 2448 3432 
Q 2725 3281 2906 2969 
z
M 947 1747 
Q 947 1113 1208 752 
Q 1469 391 1925 391 
Q 2381 391 2643 752 
Q 2906 1113 2906 1747 
Q 2906 2381 2643 2742 
Q 2381 3103 1925 3103 
Q 1469 3103 1208 2742 
Q 947 2381 947 1747 
z
" transform="scale(0.015625)"/>
       <path id="DejaVuSans-65" d="M 3597 1894 
L 3597 1613 
L 953 1613 
Q 991 1019 1311 708 
Q 1631 397 2203 397 
Q 2534 397 2845 478 
Q 3156 559 3463 722 
L 3463 178 
Q 3153 47 2828 -22 
Q 2503 -91 2169 -91 
Q 1331 -91 842 396 
Q 353 884 353 1716 
Q 353 2575 817 3079 
Q 1281 3584 2069 3584 
Q 2775 3584 3186 3129 
Q 3597 2675 3597 1894 
z
M 3022 2063 
Q 3016 2534 2758 2815 
Q 2500 3097 2075 3097 
Q 1594 3097 1305 2825 
Q 1016 2553 972 2059 
L 3022 2063 
z
" transform="scale(0.015625)"/>
       <path id="DejaVuSans-72" d="M 2631 2963 
Q 2534 3019 2420 3045 
Q 2306 3072 2169 3072 
Q 1681 3072 1420 2755 
Q 1159 2438 1159 1844 
L 1159 0 
L 581 0 
L 581 3500 
L 1159 3500 
L 1159 2956 
Q 1341 3275 1631 3429 
Q 1922 3584 2338 3584 
Q 2397 3584 2469 3576 
Q 2541 3569 2628 3553 
L 2631 2963 
z
" transform="scale(0.015625)"/>
       <path id="DejaVuSans-69" d="M 603 3500 
L 1178 3500 
L 1178 0 
L 603 0 
L 603 3500 
z
M 603 4863 
L 1178 4863 
L 1178 4134 
L 603 4134 
L 603 4863 
z
" transform="scale(0.015625)"/>
       <path id="DejaVuSans-76" d="M 191 3500 
L 800 3500 
L 1894 563 
L 2988 3500 
L 3597 3500 
L 2284 0 
L 1503 0 
L 191 3500 
z
" transform="scale(0.015625)"/>
       <path id="DejaVuSans-20" transform="scale(0.015625)"/>
       <path id="DejaVuSans-61" d="M 2194 1759 
Q 1497 1759 1228 1600 
Q 959 1441 959 1056 
Q 959 750 1161 570 
Q 1363 391 1709 391 
Q 2188 391 2477 730 
Q 2766 1069 2766 1631 
L 2766 1759 
L 2194 1759 
z
M 3341 1997 
L 3341 0 
L 2766 0 
L 2766 531 
Q 2569 213 2275 61 
Q 1981 -91 1556 -91 
Q 1019 -91 701 211 
Q 384 513 384 1019 
Q 384 1609 779 1909 
Q 1175 2209 1959 2209 
L 2766 2209 
L 2766 2266 
Q 2766 2663 2505 2880 
Q 2244 3097 1772 3097 
Q 1472 3097 1187 3025 
Q 903 2953 641 2809 
L 641 3341 
Q 956 3463 1253 3523 
Q 1550 3584 1831 3584 
Q 2591 3584 2966 3190 
Q 3341 2797 3341 1997 
z
" transform="scale(0.015625)"/>
       <path id="DejaVuSans-74" d="M 1172 4494 
L 1172 3500 
L 2356 3500 
L 2356 3053 
L 1172 3053 
L 1172 1153 
Q 1172 725 1289 603 
Q 1406 481 1766 481 
L 2356 481 
L 2356 0 
L 1766 0 
Q 1100 0 847 248 
Q 594 497 594 1153 
L 594 3053 
L 172 3053 
L 172 3500 
L 594 3500 
L 594 4494 
L 1172 4494 
z
" transform="scale(0.015625)"/>
      </defs>
      <use xlink:href="#DejaVuSans-64"/>
      <use xlink:href="#DejaVuSans-65" x="63.476562"/>
      <use xlink:href="#DejaVuSans-72" x="125"/>
      <use xlink:href="#DejaVuSans-69" x="166.113281"/>
      <use xlink:href="#DejaVuSans-76" x="193.896484"/>
      <use xlink:href="#DejaVuSans-65" x="253.076172"/>
      <use xlink:href="#DejaVuSans-64" x="314.599609"/>
      <use xlink:href="#DejaVuSans-20" x="378.076172"/>
      <use xlink:href="#DejaVuSans-64" x="409.863281"/>
      <use xlink:href="#DejaVuSans-61" x="473.339844"/>
      <use xlink:href="#DejaVuSans-74" x="534.619141"/>
      <use xlink:href="#DejaVuSans-61" x="573.828125"/>
     </g>
    </g>
   </g>
   <g id="text_2">
    <g clip-path="url(#peaa05a6647)">
     <!-- test data -->
     <g transform="translate(49.254221 210.11125) scale(0.12 -0.12)">
      <defs>
       <path id="DejaVuSans-73" d="M 2834 3397 
L 2834 2853 
Q 2591 2978 2328 3040 
Q 2066 3103 1784 3103 
Q 1356 3103 1142 2972 
Q 928 2841 928 2578 
Q 928 2378 1081 2264 
Q 1234 2150 1697 2047 
L 1894 2003 
Q 2506 1872 2764 1633 
Q 3022 1394 3022 966 
Q 3022 478 2636 193 
Q 2250 -91 1575 -91 
Q 1294 -91 989 -36 
Q 684 19 347 128 
L 347 722 
Q 666 556 975 473 
Q 1284 391 1588 391 
Q 1994 391 2212 530 
Q 2431 669 2431 922 
Q 2431 1156 2273 1281 
Q 2116 1406 1581 1522 
L 1381 1569 
Q 847 1681 609 1914 
Q 372 2147 372 2553 
Q 372 3047 722 3315 
Q 1072 3584 1716 3584 
Q 2034 3584 2315 3537 
Q 2597 3491 2834 3397 
z
" transform="scale(0.015625)"/>
      </defs>
      <use xlink:href="#DejaVuSans-74"/>
      <use xlink:href="#DejaVuSans-65" x="39.208984"/>
      <use xlink:href="#DejaVuSans-73" x="100.732422"/>
      <use xlink:href="#DejaVuSans-74" x="152.832031"/>
      <use xlink:href="#DejaVuSans-20" x="192.041016"/>
      <use xlink:href="#DejaVuSans-64" x="223.828125"/>
      <use xlink:href="#DejaVuSans-61" x="287.304688"/>
      <use xlink:href="#DejaVuSans-74" x="348.583984"/>
      <use xlink:href="#DejaVuSans-61" x="387.792969"/>
     </g>
    </g>
   </g>
   <g id="text_3">
    <g clip-path="url(#peaa05a6647)">
     <!-- making a longer lineage chain -->
     <g transform="translate(-14.742341 99.167854) scale(0.12 -0.12)">
      <defs>
       <path id="DejaVuSans-6d" d="M 3328 2828 
Q 3544 3216 3844 3400 
Q 4144 3584 4550 3584 
Q 5097 3584 5394 3201 
Q 5691 2819 5691 2113 
L 5691 0 
L 5113 0 
L 5113 2094 
Q 5113 2597 4934 2840 
Q 4756 3084 4391 3084 
Q 3944 3084 3684 2787 
Q 3425 2491 3425 1978 
L 3425 0 
L 2847 0 
L 2847 2094 
Q 2847 2600 2669 2842 
Q 2491 3084 2119 3084 
Q 1678 3084 1418 2786 
Q 1159 2488 1159 1978 
L 1159 0 
L 581 0 
L 581 3500 
L 1159 3500 
L 1159 2956 
Q 1356 3278 1631 3431 
Q 1906 3584 2284 3584 
Q 2666 3584 2933 3390 
Q 3200 3197 3328 2828 
z
" transform="scale(0.015625)"/>
       <path id="DejaVuSans-6b" d="M 581 4863 
L 1159 4863 
L 1159 1991 
L 2875 3500 
L 3609 3500 
L 1753 1863 
L 3688 0 
L 2938 0 
L 1159 1709 
L 1159 0 
L 581 0 
L 581 4863 
z
" transform="scale(0.015625)"/>
       <path id="DejaVuSans-6e" d="M 3513 2113 
L 3513 0 
L 2938 0 
L 2938 2094 
Q 2938 2591 2744 2837 
Q 2550 3084 2163 3084 
Q 1697 3084 1428 2787 
Q 1159 2491 1159 1978 
L 1159 0 
L 581 0 
L 581 3500 
L 1159 3500 
L 1159 2956 
Q 1366 3272 1645 3428 
Q 1925 3584 2291 3584 
Q 2894 3584 3203 3211 
Q 3513 2838 3513 2113 
z
" transform="scale(0.015625)"/>
       <path id="DejaVuSans-67" d="M 2906 1791 
Q 2906 2416 2648 2759 
Q 2391 3103 1925 3103 
Q 1463 3103 1205 2759 
Q 947 2416 947 1791 
Q 947 1169 1205 825 
Q 1463 481 1925 481 
Q 2391 481 2648 825 
Q 2906 1169 2906 1791 
z
M 3481 434 
Q 3481 -459 3084 -895 
Q 2688 -1331 1869 -1331 
Q 1566 -1331 1297 -1286 
Q 1028 -1241 775 -1147 
L 775 -588 
Q 1028 -725 1275 -790 
Q 1522 -856 1778 -856 
Q 2344 -856 2625 -561 
Q 2906 -266 2906 331 
L 2906 616 
Q 2728 306 2450 153 
Q 2172 0 1784 0 
Q 1141 0 747 490 
Q 353 981 353 1791 
Q 353 2603 747 3093 
Q 1141 3584 1784 3584 
Q 2172 3584 2450 3431 
Q 2728 3278 2906 2969 
L 2906 3500 
L 3481 3500 
L 3481 434 
z
" transform="scale(0.015625)"/>
       <path id="DejaVuSans-6c" d="M 603 4863 
L 1178 4863 
L 1178 0 
L 603 0 
L 603 4863 
z
" transform="scale(0.015625)"/>
       <path id="DejaVuSans-6f" d="M 1959 3097 
Q 1497 3097 1228 2736 
Q 959 2375 959 1747 
Q 959 1119 1226 758 
Q 1494 397 1959 397 
Q 2419 397 2687 759 
Q 2956 1122 2956 1747 
Q 2956 2369 2687 2733 
Q 2419 3097 1959 3097 
z
M 1959 3584 
Q 2709 3584 3137 3096 
Q 3566 2609 3566 1747 
Q 3566 888 3137 398 
Q 2709 -91 1959 -91 
Q 1206 -91 779 398 
Q 353 888 353 1747 
Q 353 2609 779 3096 
Q 1206 3584 1959 3584 
z
" transform="scale(0.015625)"/>
       <path id="DejaVuSans-63" d="M 3122 3366 
L 3122 2828 
Q 2878 2963 2633 3030 
Q 2388 3097 2138 3097 
Q 1578 3097 1268 2742 
Q 959 2388 959 1747 
Q 959 1106 1268 751 
Q 1578 397 2138 397 
Q 2388 397 2633 464 
Q 2878 531 3122 666 
L 3122 134 
Q 2881 22 2623 -34 
Q 2366 -91 2075 -91 
Q 1284 -91 818 406 
Q 353 903 353 1747 
Q 353 2603 823 3093 
Q 1294 3584 2113 3584 
Q 2378 3584 2631 3529 
Q 2884 3475 3122 3366 
z
" transform="scale(0.015625)"/>
       <path id="DejaVuSans-68" d="M 3513 2113 
L 3513 0 
L 2938 0 
L 2938 2094 
Q 2938 2591 2744 2837 
Q 2550 3084 2163 3084 
Q 1697 3084 1428 2787 
Q 1159 2491 1159 1978 
L 1159 0 
L 581 0 
L 581 4863 
L 1159 4863 
L 1159 2956 
Q 1366 3272 1645 3428 
Q 1925 3584 2291 3584 
Q 2894 3584 3203 3211 
Q 3513 2838 3513 2113 
z
" transform="scale(0.015625)"/>
      </defs>
      <use xlink:href="#DejaVuSans-6d"/>
      <use xlink:href="#DejaVuSans-61" x="97.412109"/>
      <use xlink:href="#DejaVuSans-6b" x="158.691406"/>
      <use xlink:href="#DejaVuSans-69" x="216.601562"/>
      <use xlink:href="#DejaVuSans-6e" x="244.384766"/>
      <use xlink:href="#DejaVuSans-67" x="307.763672"/>
      <use xlink:href="#DejaVuSans-20" x="371.240234"/>
      <use xlink:href="#DejaVuSans-61" x="403.027344"/>
      <use xlink:href="#DejaVuSans-20" x="464.306641"/>
      <use xlink:href="#DejaVuSans-6c" x="496.09375"/>
      <use xlink:href="#DejaVuSans-6f" x="523.876953"/>
      <use xlink:href="#DejaVuSans-6e" x="585.058594"/>
      <use xlink:href="#DejaVuSans-67" x="648.4375"/>
      <use xlink:href="#DejaVuSans-65" x="711.914062"/>
      <use xlink:href="#DejaVuSans-72" x="773.4375"/>
      <use xlink:href="#DejaVuSans-20" x="814.550781"/>
      <use xlink:href="#DejaVuSans-6c" x="846.337891"/>
      <use xlink:href="#DejaVuSans-69" x="874.121094"/>
      <use xlink:href="#DejaVuSans-6e" x="901.904297"/>
      <use xlink:href="#DejaVuSans-65" x="965.283203"/>
      <use xlink:href="#DejaVuSans-61" x="1026.806641"/>
      <use xlink:href="#DejaVuSans-67" x="1088.085938"/>
      <use xlink:href="#DejaVuSans-65" x="1151.5625"/>
      <use xlink:href="#DejaVuSans-20" x="1213.085938"/>
      <use xlink:href="#DejaVuSans-63" x="1244.873047"/>
      <use xlink:href="#DejaVuSans-68" x="1299.853516"/>
      <use xlink:href="#DejaVuSans-61" x="1363.232422"/>
      <use xlink:href="#DejaVuSans-69" x="1424.511719"/>
      <use xlink:href="#DejaVuSans-6e" x="1452.294922"/>
     </g>
    </g>
   </g>
   <g id="text_4">
    <g clip-path="url(#peaa05a6647)">
     <!-- tst data -->
     <g transform="translate(269.550154 210.11125) scale(0.12 -0.12)">
      <use xlink:href="#DejaVuSans-74"/>
      <use xlink:href="#DejaVuSans-73" x="39.208984"/>
      <use xlink:href="#DejaVuSans-74" x="91.308594"/>
      <use xlink:href="#DejaVuSans-20" x="130.517578"/>
      <use xlink:href="#DejaVuSans-64" x="162.304688"/>
      <use xlink:href="#DejaVuSans-61" x="225.78125"/>
      <use xlink:href="#DejaVuSans-74" x="287.060547"/>
      <use xlink:href="#DejaVuSans-61" x="326.269531"/>
     </g>
    </g>
   </g>
   <g id="matplotlib.axis_1"/>
   <g id="matplotlib.axis_2"/>
  </g>
 </g>
 <defs>
  <clipPath id="peaa05a6647">
   <rect x="45" y="43.2" width="279" height="277.2"/>
  </clipPath>
 </defs>
</svg>
