<?xml version="1.0" encoding="UTF-8"?>
<svg width="195px" height="69px" viewBox="0 0 195 69" version="1.1" xmlns="http://www.w3.org/2000/svg" xmlns:xlink="http://www.w3.org/1999/xlink">
    <title>Group 17</title>
    <g id="Page-1" stroke="none" stroke-width="1" fill="none" fill-rule="evenodd">
        <g id="Group-17" transform="translate(0.000000, 0.000000)">
            <g id="Group-16" transform="translate(81.000000, 3.000000)" fill="#3F51B5" fill-rule="nonzero" stroke="#3F51B5">
                <path d="M26.077,64.525 C41.296,64.525 53.934,58.028 53.934,44.945 C53.934,33.197 44.945,28.213 28.925,25.454 C20.025,23.763 17.088,22.606 17.088,18.69 C17.088,13.884 21.36,12.816 27.412,12.816 C33.731,12.816 40.406,14.329 48.238,17.622 L50.107,4.628 C43.076,1.424 35.333,0 27.412,0 C13.261,0 0.801,6.497 0.801,19.313 C0.801,30.794 9.256,35.066 25.009,37.736 C33.464,39.427 37.736,40.406 37.736,45.568 C37.736,50.641 32.396,51.62 26.077,51.62 C18.779,51.62 7.921,49.484 1.246,46.013 L-1.13686838e-13,59.007 C7.12,62.745 16.465,64.525 26.077,64.525 Z" id="S"></path>
            </g>
            <path d="M166.947,66.525 C182.166,66.525 194.804,60.028 194.804,46.945 C194.804,35.197 185.815,30.213 169.795,27.454 C160.895,25.763 157.958,24.606 157.958,20.69 C157.958,15.884 162.23,14.816 168.282,14.816 C174.601,14.816 181.276,16.329 189.108,19.622 L190.977,6.628 C183.946,3.424 176.203,2 168.282,2 C154.131,2 141.671,8.497 141.671,21.313 C141.671,32.794 150.126,37.066 165.879,39.736 C174.334,41.427 178.606,42.406 178.606,47.568 C178.606,52.641 173.266,53.62 166.947,53.62 C159.649,53.62 148.791,51.484 142.116,48.013 L140.87,61.007 C147.99,64.745 157.335,66.525 166.947,66.525 Z" id="S-Copy" fill="#3F51B5" fill-rule="nonzero"></path>
            <path d="M41.02,67.16 C60.82,67.16 75.13,53.48 75.13,34.58 C75.13,15.59 60.82,2 41.11,2 C21.31,2 7,15.68 7,34.58 C7,53.57 21.31,67.16 41.02,67.16 Z M41.11,53.66 C30.49,53.66 23.11,46.01 23.11,34.58 C23.11,23.15 30.49,15.5 41.11,15.5 C51.64,15.5 59.02,23.15 59.02,34.58 C59.02,46.01 51.64,53.66 41.11,53.66 Z" id="O" fill="#3F51B5" fill-rule="nonzero"></path>
            <g id="Group-15" transform="translate(-0.000000, 0.000000)">
                <circle id="Oval" fill="#FA5542" cx="41.5" cy="34.5" r="4.5"></circle>
                <path d="M13.5176674,23.5194363 C20.9821028,23.3527204 31.1699814,24.2560447 42.3122497,26.2654943 C53.4559889,28.2752091 63.4447151,31.0109704 70.585109,33.8117873 C74.1884669,35.2252031 77.0615916,36.6517428 78.978948,38.0110366 C79.8733333,38.6451037 80.5548276,39.2595124 80.9909074,39.8521851 C81.3494729,40.3395087 81.5413945,40.8034925 81.4927459,41.2476826 C81.4458117,41.6762197 81.1716712,42.0429239 80.7390293,42.3718391 C80.1991769,42.7822608 79.4212511,43.1260176 78.4378215,43.4154934 C76.3062673,44.0429235 73.2433721,44.3965621 69.4823326,44.4805637 C62.0178972,44.6472796 51.8300186,43.7439553 40.6877503,41.7345057 C29.5440111,39.7247909 19.5552849,36.9890296 12.414891,34.1882127 C8.81153307,32.7747969 5.9384084,31.3482572 4.02105204,29.9889634 C3.12666665,29.3548963 2.44517237,28.7404876 2.00909257,28.1478149 C1.65052709,27.6604913 1.45860547,27.1965075 1.50725408,26.7523174 C1.55418834,26.3237803 1.82832881,25.9570761 2.26097074,25.6281609 C2.80082314,25.2177392 3.57874895,24.8739824 4.56217853,24.5845066 C6.6937327,23.9570765 9.75662788,23.6034379 13.5176674,23.5194363 Z" id="Oval" stroke="#000000"></path>
                <path d="M64.1940611,0.554727572 C64.8032231,0.448966519 65.3165443,0.485514923 65.7051653,0.729735472 C66.079692,0.965098726 66.2986089,1.37783303 66.4110248,1.9184721 C66.5502278,2.58793808 66.523898,3.44199695 66.35758,4.4566556 C65.9970358,6.65623278 64.9766621,9.57183867 63.4027665,12.9953603 C60.27858,19.7910587 54.9777834,28.5603808 48.2439933,37.6943315 C41.5092219,46.8296131 34.6159222,54.6001584 28.9134693,59.776858 C26.0358114,62.3892024 23.4666517,64.3381901 21.3787872,65.45664 C20.4042574,65.9786866 19.5411577,66.3176257 18.8059389,66.4452724 C18.1967769,66.5510335 17.6834557,66.5144851 17.2948347,66.2702645 C16.920308,66.0349013 16.7013911,65.622167 16.5889752,65.0815279 C16.4497722,64.4120619 16.476102,63.558003 16.64242,62.5433444 C17.0029642,60.3437672 18.0233379,57.4281613 19.5972335,54.0046397 C22.72142,47.2089413 28.0222166,38.4396192 34.7560067,29.3056685 C41.4907781,20.1703869 48.3840778,12.3998416 54.0865307,7.22314197 C56.9641886,4.61079758 59.5333483,2.66180986 61.6212128,1.54336005 C62.5957426,1.02131336 63.4588423,0.682374258 64.1940611,0.554727572 Z" id="Oval" stroke="#FB6D5D"></path>
                <path d="M17.2948347,0.729735472 C17.6834557,0.485514923 18.1967769,0.448966519 18.8059389,0.554727572 C19.5411577,0.682374258 20.4042574,1.02131336 21.3787872,1.54336005 C23.4666517,2.66180986 26.0358114,4.61079758 28.9134693,7.22314197 C34.6159222,12.3998416 41.5092219,20.1703869 48.2439933,29.3056685 C54.9777834,38.4396192 60.27858,47.2089413 63.4027665,54.0046397 C64.9766621,57.4281613 65.9970358,60.3437672 66.35758,62.5433444 C66.523898,63.558003 66.5502278,64.4120619 66.4110248,65.0815279 C66.2986089,65.622167 66.079692,66.0349013 65.7051653,66.2702645 C65.3165443,66.5144851 64.8032231,66.5510335 64.1940611,66.4452724 C63.4588423,66.3176257 62.5957426,65.9786866 61.6212128,65.45664 C59.5333483,64.3381901 56.9641886,62.3892024 54.0865307,59.776858 C48.3840778,54.6001584 41.4907781,46.8296131 34.7560067,37.6943315 C28.0222166,28.5603808 22.72142,19.7910587 19.5972335,12.9953603 C18.0233379,9.57183867 17.0029642,6.65623278 16.64242,4.4566556 C16.476102,3.44199695 16.4497722,2.58793808 16.5889752,1.9184721 C16.7013911,1.37783303 16.920308,0.965098726 17.2948347,0.729735472 Z" id="Oval" stroke="#70DCE1"></path>
                <circle id="Oval" fill="#FB6D5D" cx="64.5" cy="7.5" r="3.5"></circle>
                <circle id="Oval-Copy" fill="#FB6D5D" cx="64.5" cy="57.5" r="3.5"></circle>
                <circle id="Oval-Copy-2" fill="#FB6D5D" cx="3.5" cy="24.5" r="3.5"></circle>
            </g>
        </g>
    </g>
</svg>