<?xml version="1.0" encoding="UTF-8" standalone="no"?>
<!-- Created with Inkscape (http://www.inkscape.org/) -->

<svg
   width="72pt"
   height="72pt"
   viewBox="0 0 25.400001 25.400001"
   version="1.1"
   id="svg5"
   inkscape:version="1.1.2 (0a00cf5339, 2022-02-04)"
   sodipodi:docname="icon.svg"
   inkscape:export-xdpi="96"
   inkscape:export-ydpi="96"
   xmlns:inkscape="http://www.inkscape.org/namespaces/inkscape"
   xmlns:sodipodi="http://sodipodi.sourceforge.net/DTD/sodipodi-0.dtd"
   xmlns="http://www.w3.org/2000/svg"
   xmlns:svg="http://www.w3.org/2000/svg">
  <sodipodi:namedview
     id="namedview7"
     pagecolor="#ffffff"
     bordercolor="#666666"
     borderopacity="1.0"
     inkscape:pageshadow="2"
     inkscape:pageopacity="0.0"
     inkscape:pagecheckerboard="0"
     inkscape:document-units="mm"
     showgrid="false"
     height="210mm"
     units="pt"
     inkscape:zoom="3.6392876"
     inkscape:cx="28.439632"
     inkscape:cy="37.369952"
     inkscape:window-width="1920"
     inkscape:window-height="1011"
     inkscape:window-x="0"
     inkscape:window-y="32"
     inkscape:window-maximized="1"
     inkscape:current-layer="layer1" />
  <defs
     id="defs2" />
  <g
     inkscape:label="Layer 1"
     inkscape:groupmode="layer"
     id="layer1">
    <path
       d="M 4.3384323,12.918648 H 15.787699 V 24.367914 H 4.3384323 Z"
       fill="none"
       id="path2"
       style="stroke-width:0.477052" />
    <path
       d="m 21.996392,1.713011 h -5.724633 c -0.524757,0 -0.954105,0.4293475 -0.954105,0.9541061 v 6.6787391 h 0.954105 V 2.6671171 h 5.724633 z m 1.431158,1.9082123 h -5.247579 c -0.524759,0 -0.954106,0.4293474 -0.954106,0.9541043 v 6.6787394 c 0,0.524759 0.429347,0.954106 0.954106,0.954106 h 5.247579 c 0.524759,0 0.954106,-0.429347 0.954106,-0.954106 V 4.5753276 c 0,-0.5247569 -0.429347,-0.9541043 -0.954106,-0.9541043 z m 0,7.6328437 H 18.179971 V 4.5753276 h 5.247579 z"
       id="path4"
       style="stroke-width:0.477052" />
    <path
       d="m 45.040263,32.83867 h 6.35 v 6.35 h -6.35 z"
       fill="none"
       id="path26"
       style="stroke-width:0.264583" />
    <path
       d="m 2.020222,21.500304 v 2.862316 h 7.6328445 v -2.862316 c 0,-0.524755 -0.4293477,-0.954094 -0.9541066,-0.954094 H 2.974328 c -0.5247586,0 -0.954106,0.429339 -0.954106,0.954094 z m 6.6787379,0.954111 H 2.974328 v -0.954111 h 5.7246319 z m -2.8623154,-7.63284 c -1.3166655,0 -2.3852643,1.068589 -2.3852643,2.385254 l 2.3852643,3.339381 2.3852634,-3.339381 c 0,-1.316665 -1.0685984,-2.385254 -2.3852634,-2.385254 z m 0,4.293477 -1.4311583,-1.908223 c 0,-0.79191 0.6392514,-1.431158 1.4311583,-1.431158 0.7919074,0 1.4311581,0.639248 1.4311581,1.431158 z"
       id="path28"
       style="stroke-width:0.477052" />
    <g
       id="g14"
       transform="matrix(0.26458333,0,0,0.26458333,21.14751,23.81806)">
      <rect
         fill="none"
         height="24"
         width="24"
         id="rect12"
         x="0"
         y="0" />
    </g>
    <g
       id="g18"
       transform="matrix(0.47705275,0,0,0.47705275,0.04495759,0.94250537)">
      <path
         d="M 20,7 H 15 V 4 C 15,2.9 14.1,2 13,2 H 11 C 9.9,2 9,2.9 9,4 V 7 H 4 C 2.9,7 2,7.9 2,9 v 11 c 0,1.1 0.9,2 2,2 h 16 c 1.1,0 2,-0.9 2,-2 V 9 C 22,7.9 21.1,7 20,7 Z M 9,12 c 0.83,0 1.5,0.67 1.5,1.5 C 10.5,14.33 9.83,15 9,15 8.17,15 7.5,14.33 7.5,13.5 7.5,12.67 8.17,12 9,12 Z m 3,6 H 6 v -0.75 c 0,-1 2,-1.5 3,-1.5 1,0 3,0.5 3,1.5 z M 13,9 H 11 V 4 h 2 z m 5,7.5 H 14 V 15 h 4 z m 0,-3 H 14 V 12 h 4 z"
         id="path16" />
    </g>
    <path
       d="m 26.148058,9.326757 h 6.35 v 6.35 h -6.35 z"
       fill="none"
       fill-rule="evenodd"
       id="path2-3"
       style="stroke-width:0.264583" />
    <g
       fill-rule="evenodd"
       id="g8"
       transform="matrix(0.47705275,0,0,0.47705275,14.35654,14.82686)">
      <path
         d="m 9,17 3,-2.94 C 11.61,14.02 11.32,14 11,14 8.33,14 3,15.34 3,18 v 2 h 9 z m 2,-5 c 2.21,0 4,-1.79 4,-4 C 15,5.79 13.21,4 11,4 8.79,4 7,5.79 7,8 c 0,2.21 1.79,4 4,4"
         id="path4-6" />
      <path
         d="M 15.47,20.5 12,17 l 1.4,-1.41 2.07,2.08 5.13,-5.17 1.4,1.41 z"
         id="path6" />
    </g>
  </g>
</svg>
