<svg xmlns="http://www.w3.org/2000/svg" version="1.1" xmlns:xlink="http://www.w3.org/1999/xlink" width="512" height="512" x="0" y="0" viewBox="0 0 20 20" style="enable-background:new 0 0 512 512" xml:space="preserve" class=""><g><g fill="#2b2a3d"><path d="M0 4h2V2h2V0H0zM16 4h2V0h-4v2h2zM6 0h2v2H6zM10 0h2v2h-2zM2 14H0v4h4v-2H2zM10 16h2v2h-2zM6 16h2v2H6zM20 16h-2v-2h-2v2h-2v2h2v2h2v-2h2zM0 10h2v2H0zM0 6h2v2H0zM16 10h2v2h-2zM16 6h2v2h-2z" fill="#2b2a3d" opacity="1" data-original="#2b2a3d" class=""></path></g></g></svg>