<?xml version="1.0" encoding="UTF-8" standalone="no"?>
<!DOCTYPE svg PUBLIC "-//W3C//DTD SVG 1.1//EN"
 "http://www.w3.org/Graphics/SVG/1.1/DTD/svg11.dtd">
<!-- Generated by graphviz version 2.50.0 (0)
 -->
<!-- Pages: 1 -->
<svg width="1617pt" height="816pt"
 viewBox="0.00 0.00 1617.00 816.00" xmlns="http://www.w3.org/2000/svg" xmlns:xlink="http://www.w3.org/1999/xlink">
<g id="graph0" class="graph" transform="scale(1 1) rotate(0) translate(4 812)">
<polygon fill="white" stroke="transparent" points="-4,4 -4,-812 1613,-812 1613,4 -4,4"/>
<!-- analysis -->
<g id="node1" class="node">
<title>analysis</title>
<polygon fill="none" stroke="black" points="1324.5,-419 1324.5,-447 1601.5,-447 1601.5,-419 1324.5,-419"/>
<text text-anchor="start" x="1431" y="-430.2" font-family="Helvetica,sans-Serif" font-weight="bold" font-size="16.00">analysis</text>
<polygon fill="none" stroke="black" points="1324.5,-394 1324.5,-419 1601.5,-419 1601.5,-394 1324.5,-394"/>
<text text-anchor="start" x="1329.5" y="-403.8" font-family="Helvetica,sans-Serif" text-decoration="underline" font-size="14.00">id</text>
<text text-anchor="start" x="1340.5" y="-403.8" font-family="Helvetica,sans-Serif" font-size="14.00"> [INTEGER]</text>
<text text-anchor="start" x="1413.5" y="-403.8" font-family="Helvetica,sans-Serif" font-size="14.00"> NOT NULL</text>
<polygon fill="none" stroke="black" points="1324.5,-369 1324.5,-394 1601.5,-394 1601.5,-369 1324.5,-369"/>
<text text-anchor="start" x="1329.5" y="-378.8" font-family="Helvetica,sans-Serif" font-size="14.00">analysis_function_pkey</text>
<text text-anchor="start" x="1451.5" y="-378.8" font-family="Helvetica,sans-Serif" font-size="14.00"> [INTEGER]</text>
<text text-anchor="start" x="1524.5" y="-378.8" font-family="Helvetica,sans-Serif" font-size="14.00"> NOT NULL</text>
<polygon fill="none" stroke="black" points="1324.5,-344 1324.5,-369 1601.5,-369 1601.5,-344 1324.5,-344"/>
<text text-anchor="start" x="1329.5" y="-353.8" font-family="Helvetica,sans-Serif" font-size="14.00">attributes</text>
<text text-anchor="start" x="1385.5" y="-353.8" font-family="Helvetica,sans-Serif" font-size="14.00"> [JSON]</text>
<polygon fill="none" stroke="black" points="1324.5,-319 1324.5,-344 1601.5,-344 1601.5,-319 1324.5,-319"/>
<text text-anchor="start" x="1329.5" y="-328.8" font-family="Helvetica,sans-Serif" font-size="14.00">device_data_pkey</text>
<text text-anchor="start" x="1420.5" y="-328.8" font-family="Helvetica,sans-Serif" font-size="14.00"> [INTEGER]</text>
<polygon fill="none" stroke="black" points="1324.5,-294 1324.5,-319 1601.5,-319 1601.5,-294 1324.5,-294"/>
<text text-anchor="start" x="1329.5" y="-303.8" font-family="Helvetica,sans-Serif" font-size="14.00">die_pkey</text>
<text text-anchor="start" x="1366.5" y="-303.8" font-family="Helvetica,sans-Serif" font-size="14.00"> [INTEGER]</text>
<polygon fill="none" stroke="black" points="1324.5,-269 1324.5,-294 1601.5,-294 1601.5,-269 1324.5,-269"/>
<text text-anchor="start" x="1329.5" y="-278.8" font-family="Helvetica,sans-Serif" font-size="14.00">input_hash</text>
<text text-anchor="start" x="1396.5" y="-278.8" font-family="Helvetica,sans-Serif" font-size="14.00"> [VARCHAR]</text>
<text text-anchor="start" x="1473.5" y="-278.8" font-family="Helvetica,sans-Serif" font-size="14.00"> NOT NULL</text>
<polygon fill="none" stroke="black" points="1324.5,-244 1324.5,-269 1601.5,-269 1601.5,-244 1324.5,-244"/>
<text text-anchor="start" x="1329.5" y="-253.8" font-family="Helvetica,sans-Serif" font-size="14.00">is_latest</text>
<text text-anchor="start" x="1379.5" y="-253.8" font-family="Helvetica,sans-Serif" font-size="14.00"> [BOOLEAN]</text>
<text text-anchor="start" x="1458.5" y="-253.8" font-family="Helvetica,sans-Serif" font-size="14.00"> NOT NULL</text>
<polygon fill="none" stroke="black" points="1324.5,-219 1324.5,-244 1601.5,-244 1601.5,-219 1324.5,-219"/>
<text text-anchor="start" x="1329.5" y="-228.8" font-family="Helvetica,sans-Serif" font-size="14.00">output</text>
<text text-anchor="start" x="1367.5" y="-228.8" font-family="Helvetica,sans-Serif" font-size="14.00"> [JSON]</text>
<polygon fill="none" stroke="black" points="1324.5,-194 1324.5,-219 1601.5,-219 1601.5,-194 1324.5,-194"/>
<text text-anchor="start" x="1329.5" y="-203.8" font-family="Helvetica,sans-Serif" font-size="14.00">parameters</text>
<text text-anchor="start" x="1399.5" y="-203.8" font-family="Helvetica,sans-Serif" font-size="14.00"> [JSON]</text>
<polygon fill="none" stroke="black" points="1324.5,-169 1324.5,-194 1601.5,-194 1601.5,-169 1324.5,-169"/>
<text text-anchor="start" x="1329.5" y="-178.8" font-family="Helvetica,sans-Serif" font-size="14.00">summary_plot</text>
<text text-anchor="start" x="1416.5" y="-178.8" font-family="Helvetica,sans-Serif" font-size="14.00"> [VARCHAR]</text>
<text text-anchor="start" x="1493.5" y="-178.8" font-family="Helvetica,sans-Serif" font-size="14.00"> NOT NULL</text>
<polygon fill="none" stroke="black" points="1324.5,-144 1324.5,-169 1601.5,-169 1601.5,-144 1324.5,-144"/>
<text text-anchor="start" x="1329.5" y="-153.8" font-family="Helvetica,sans-Serif" font-size="14.00">timestamp</text>
<text text-anchor="start" x="1393.5" y="-153.8" font-family="Helvetica,sans-Serif" font-size="14.00"> [DATETIME]</text>
<text text-anchor="start" x="1473.5" y="-153.8" font-family="Helvetica,sans-Serif" font-size="14.00"> NOT NULL</text>
<polygon fill="none" stroke="black" points="1324.5,-119 1324.5,-144 1601.5,-144 1601.5,-119 1324.5,-119"/>
<text text-anchor="start" x="1329.5" y="-128.8" font-family="Helvetica,sans-Serif" font-size="14.00">wafer_pkey</text>
<text text-anchor="start" x="1381.5" y="-128.8" font-family="Helvetica,sans-Serif" font-size="14.00"> [INTEGER]</text>
</g>
<!-- device_data -->
<g id="node2" class="node">
<title>device_data</title>
<polygon fill="none" stroke="black" points="973,-609 973,-637 1215,-637 1215,-609 973,-609"/>
<text text-anchor="start" x="1047.5" y="-620.2" font-family="Helvetica,sans-Serif" font-weight="bold" font-size="16.00">device_data</text>
<polygon fill="none" stroke="black" points="973,-584 973,-609 1215,-609 1215,-584 973,-584"/>
<text text-anchor="start" x="978" y="-593.8" font-family="Helvetica,sans-Serif" text-decoration="underline" font-size="14.00">id</text>
<text text-anchor="start" x="989" y="-593.8" font-family="Helvetica,sans-Serif" font-size="14.00"> [INTEGER]</text>
<text text-anchor="start" x="1062" y="-593.8" font-family="Helvetica,sans-Serif" font-size="14.00"> NOT NULL</text>
<polygon fill="none" stroke="black" points="973,-559 973,-584 1215,-584 1215,-559 973,-559"/>
<text text-anchor="start" x="978" y="-568.8" font-family="Helvetica,sans-Serif" font-size="14.00">attributes</text>
<text text-anchor="start" x="1034" y="-568.8" font-family="Helvetica,sans-Serif" font-size="14.00"> [JSON]</text>
<polygon fill="none" stroke="black" points="973,-534 973,-559 1215,-559 1215,-534 973,-534"/>
<text text-anchor="start" x="978" y="-543.8" font-family="Helvetica,sans-Serif" font-size="14.00">data_type</text>
<text text-anchor="start" x="1038" y="-543.8" font-family="Helvetica,sans-Serif" font-size="14.00"> [VARCHAR(11)]</text>
<text text-anchor="start" x="1138" y="-543.8" font-family="Helvetica,sans-Serif" font-size="14.00"> NOT NULL</text>
<polygon fill="none" stroke="black" points="973,-509 973,-534 1215,-534 1215,-509 973,-509"/>
<text text-anchor="start" x="978" y="-518.8" font-family="Helvetica,sans-Serif" font-size="14.00">device_pkey</text>
<text text-anchor="start" x="1036" y="-518.8" font-family="Helvetica,sans-Serif" font-size="14.00"> [INTEGER]</text>
<polygon fill="none" stroke="black" points="973,-484 973,-509 1215,-509 1215,-484 973,-484"/>
<text text-anchor="start" x="978" y="-493.8" font-family="Helvetica,sans-Serif" font-size="14.00">die_pkey</text>
<text text-anchor="start" x="1015" y="-493.8" font-family="Helvetica,sans-Serif" font-size="14.00"> [INTEGER]</text>
<polygon fill="none" stroke="black" points="973,-459 973,-484 1215,-484 1215,-459 973,-459"/>
<text text-anchor="start" x="978" y="-468.8" font-family="Helvetica,sans-Serif" font-size="14.00">path</text>
<text text-anchor="start" x="1005" y="-468.8" font-family="Helvetica,sans-Serif" font-size="14.00"> [VARCHAR]</text>
<text text-anchor="start" x="1082" y="-468.8" font-family="Helvetica,sans-Serif" font-size="14.00"> NOT NULL</text>
<polygon fill="none" stroke="black" points="973,-434 973,-459 1215,-459 1215,-434 973,-434"/>
<text text-anchor="start" x="978" y="-443.8" font-family="Helvetica,sans-Serif" font-size="14.00">plotting_kwargs</text>
<text text-anchor="start" x="1072" y="-443.8" font-family="Helvetica,sans-Serif" font-size="14.00"> [JSON]</text>
<polygon fill="none" stroke="black" points="973,-409 973,-434 1215,-434 1215,-409 973,-409"/>
<text text-anchor="start" x="978" y="-418.8" font-family="Helvetica,sans-Serif" font-size="14.00">thumbnail_path</text>
<text text-anchor="start" x="1072" y="-418.8" font-family="Helvetica,sans-Serif" font-size="14.00"> [VARCHAR]</text>
<polygon fill="none" stroke="black" points="973,-384 973,-409 1215,-409 1215,-384 973,-384"/>
<text text-anchor="start" x="978" y="-393.8" font-family="Helvetica,sans-Serif" font-size="14.00">timestamp</text>
<text text-anchor="start" x="1042" y="-393.8" font-family="Helvetica,sans-Serif" font-size="14.00"> [DATETIME]</text>
<text text-anchor="start" x="1122" y="-393.8" font-family="Helvetica,sans-Serif" font-size="14.00"> NOT NULL</text>
<polygon fill="none" stroke="black" points="973,-359 973,-384 1215,-384 1215,-359 973,-359"/>
<text text-anchor="start" x="978" y="-368.8" font-family="Helvetica,sans-Serif" font-size="14.00">timestamp_acquired</text>
<text text-anchor="start" x="1102" y="-368.8" font-family="Helvetica,sans-Serif" font-size="14.00"> [DATETIME]</text>
<polygon fill="none" stroke="black" points="973,-334 973,-359 1215,-359 1215,-334 973,-334"/>
<text text-anchor="start" x="978" y="-343.8" font-family="Helvetica,sans-Serif" font-size="14.00">valid</text>
<text text-anchor="start" x="1006" y="-343.8" font-family="Helvetica,sans-Serif" font-size="14.00"> [BOOLEAN]</text>
<text text-anchor="start" x="1085" y="-343.8" font-family="Helvetica,sans-Serif" font-size="14.00"> NOT NULL</text>
</g>
<!-- device_data&#45;&#45;analysis -->
<g id="edge1" class="edge">
<title>device_data&#45;&#45;analysis</title>
<path fill="none" stroke="#7f7f7f" stroke-dasharray="5,2" d="M1223.18,-415C1253.12,-398.42 1285.21,-380.65 1315.84,-363.68"/>
<text text-anchor="start" x="1290.84" y="-352.48" font-family="Times New Roman,serif" font-size="14.00">0..N</text>
<text text-anchor="start" x="1223.18" y="-403.8" font-family="Times New Roman,serif" font-size="14.00">{0,1}</text>
</g>
<!-- device -->
<g id="node3" class="node">
<title>device</title>
<polygon fill="none" stroke="black" points="638,-776 638,-804 864,-804 864,-776 638,-776"/>
<text text-anchor="start" x="725.5" y="-787.2" font-family="Helvetica,sans-Serif" font-weight="bold" font-size="16.00">device</text>
<polygon fill="none" stroke="black" points="638,-751 638,-776 864,-776 864,-751 638,-751"/>
<text text-anchor="start" x="643" y="-760.8" font-family="Helvetica,sans-Serif" text-decoration="underline" font-size="14.00">id</text>
<text text-anchor="start" x="654" y="-760.8" font-family="Helvetica,sans-Serif" font-size="14.00"> [INTEGER]</text>
<text text-anchor="start" x="727" y="-760.8" font-family="Helvetica,sans-Serif" font-size="14.00"> NOT NULL</text>
<polygon fill="none" stroke="black" points="638,-726 638,-751 864,-751 864,-726 638,-726"/>
<text text-anchor="start" x="643" y="-735.8" font-family="Helvetica,sans-Serif" font-size="14.00">angle</text>
<text text-anchor="start" x="677" y="-735.8" font-family="Helvetica,sans-Serif" font-size="14.00"> [FLOAT]</text>
<polygon fill="none" stroke="black" points="638,-701 638,-726 864,-726 864,-701 638,-701"/>
<text text-anchor="start" x="643" y="-710.8" font-family="Helvetica,sans-Serif" font-size="14.00">attributes</text>
<text text-anchor="start" x="699" y="-710.8" font-family="Helvetica,sans-Serif" font-size="14.00"> [JSON]</text>
<polygon fill="none" stroke="black" points="638,-676 638,-701 864,-701 864,-676 638,-676"/>
<text text-anchor="start" x="643" y="-685.8" font-family="Helvetica,sans-Serif" font-size="14.00">cell_pkey</text>
<text text-anchor="start" x="682" y="-685.8" font-family="Helvetica,sans-Serif" font-size="14.00"> [INTEGER]</text>
<text text-anchor="start" x="755" y="-685.8" font-family="Helvetica,sans-Serif" font-size="14.00"> NOT NULL</text>
<polygon fill="none" stroke="black" points="638,-651 638,-676 864,-676 864,-651 638,-651"/>
<text text-anchor="start" x="643" y="-660.8" font-family="Helvetica,sans-Serif" font-size="14.00">mirror</text>
<text text-anchor="start" x="680" y="-660.8" font-family="Helvetica,sans-Serif" font-size="14.00"> [BOOLEAN]</text>
<polygon fill="none" stroke="black" points="638,-626 638,-651 864,-651 864,-626 638,-626"/>
<text text-anchor="start" x="643" y="-635.8" font-family="Helvetica,sans-Serif" font-size="14.00">name</text>
<text text-anchor="start" x="678" y="-635.8" font-family="Helvetica,sans-Serif" font-size="14.00"> [VARCHAR]</text>
<text text-anchor="start" x="755" y="-635.8" font-family="Helvetica,sans-Serif" font-size="14.00"> NOT NULL</text>
<polygon fill="none" stroke="black" points="638,-601 638,-626 864,-626 864,-601 638,-601"/>
<text text-anchor="start" x="643" y="-610.8" font-family="Helvetica,sans-Serif" font-size="14.00">parent_cell_pkey</text>
<text text-anchor="start" x="728" y="-610.8" font-family="Helvetica,sans-Serif" font-size="14.00"> [INTEGER]</text>
<polygon fill="none" stroke="black" points="638,-576 638,-601 864,-601 864,-576 638,-576"/>
<text text-anchor="start" x="643" y="-585.8" font-family="Helvetica,sans-Serif" font-size="14.00">timestamp</text>
<text text-anchor="start" x="707" y="-585.8" font-family="Helvetica,sans-Serif" font-size="14.00"> [DATETIME]</text>
<text text-anchor="start" x="787" y="-585.8" font-family="Helvetica,sans-Serif" font-size="14.00"> NOT NULL</text>
<polygon fill="none" stroke="black" points="638,-551 638,-576 864,-576 864,-551 638,-551"/>
<text text-anchor="start" x="643" y="-560.8" font-family="Helvetica,sans-Serif" font-size="14.00">x</text>
<text text-anchor="start" x="650" y="-560.8" font-family="Helvetica,sans-Serif" font-size="14.00"> [FLOAT]</text>
<polygon fill="none" stroke="black" points="638,-526 638,-551 864,-551 864,-526 638,-526"/>
<text text-anchor="start" x="643" y="-535.8" font-family="Helvetica,sans-Serif" font-size="14.00">y</text>
<text text-anchor="start" x="650" y="-535.8" font-family="Helvetica,sans-Serif" font-size="14.00"> [FLOAT]</text>
</g>
<!-- device&#45;&#45;device_data -->
<g id="edge2" class="edge">
<title>device&#45;&#45;device_data</title>
<path fill="none" stroke="#7f7f7f" stroke-dasharray="5,2" d="M872.22,-601.89C902.23,-586.14 934.52,-569.19 964.9,-553.24"/>
<text text-anchor="start" x="939.9" y="-542.04" font-family="Times New Roman,serif" font-size="14.00">0..N</text>
<text text-anchor="start" x="872.22" y="-590.69" font-family="Times New Roman,serif" font-size="14.00">{0,1}</text>
</g>
<!-- cell -->
<g id="node4" class="node">
<title>cell</title>
<polygon fill="none" stroke="black" points="323,-713 323,-741 549,-741 549,-713 323,-713"/>
<text text-anchor="start" x="422" y="-724.2" font-family="Helvetica,sans-Serif" font-weight="bold" font-size="16.00">cell</text>
<polygon fill="none" stroke="black" points="323,-688 323,-713 549,-713 549,-688 323,-688"/>
<text text-anchor="start" x="328" y="-697.8" font-family="Helvetica,sans-Serif" text-decoration="underline" font-size="14.00">id</text>
<text text-anchor="start" x="339" y="-697.8" font-family="Helvetica,sans-Serif" font-size="14.00"> [INTEGER]</text>
<text text-anchor="start" x="412" y="-697.8" font-family="Helvetica,sans-Serif" font-size="14.00"> NOT NULL</text>
<polygon fill="none" stroke="black" points="323,-663 323,-688 549,-688 549,-663 323,-663"/>
<text text-anchor="start" x="328" y="-672.8" font-family="Helvetica,sans-Serif" font-size="14.00">attributes</text>
<text text-anchor="start" x="384" y="-672.8" font-family="Helvetica,sans-Serif" font-size="14.00"> [JSON]</text>
<polygon fill="none" stroke="black" points="323,-638 323,-663 549,-663 549,-638 323,-638"/>
<text text-anchor="start" x="328" y="-647.8" font-family="Helvetica,sans-Serif" font-size="14.00">name</text>
<text text-anchor="start" x="363" y="-647.8" font-family="Helvetica,sans-Serif" font-size="14.00"> [VARCHAR]</text>
<text text-anchor="start" x="440" y="-647.8" font-family="Helvetica,sans-Serif" font-size="14.00"> NOT NULL</text>
<polygon fill="none" stroke="black" points="323,-613 323,-638 549,-638 549,-613 323,-613"/>
<text text-anchor="start" x="328" y="-622.8" font-family="Helvetica,sans-Serif" font-size="14.00">project_pkey</text>
<text text-anchor="start" x="387" y="-622.8" font-family="Helvetica,sans-Serif" font-size="14.00"> [INTEGER]</text>
<text text-anchor="start" x="460" y="-622.8" font-family="Helvetica,sans-Serif" font-size="14.00"> NOT NULL</text>
<polygon fill="none" stroke="black" points="323,-588 323,-613 549,-613 549,-588 323,-588"/>
<text text-anchor="start" x="328" y="-597.8" font-family="Helvetica,sans-Serif" font-size="14.00">timestamp</text>
<text text-anchor="start" x="392" y="-597.8" font-family="Helvetica,sans-Serif" font-size="14.00"> [DATETIME]</text>
<text text-anchor="start" x="472" y="-597.8" font-family="Helvetica,sans-Serif" font-size="14.00"> NOT NULL</text>
</g>
<!-- cell&#45;&#45;device -->
<g id="edge3" class="edge">
<title>cell&#45;&#45;device</title>
<path fill="none" stroke="#7f7f7f" stroke-dasharray="5,2" d="M557.12,-658.41C581,-658.19 606.07,-658.2 629.94,-658.42"/>
<text text-anchor="start" x="604.94" y="-647.22" font-family="Times New Roman,serif" font-size="14.00">0..N</text>
<text text-anchor="start" x="557.12" y="-647.21" font-family="Times New Roman,serif" font-size="14.00">{0,1}</text>
</g>
<!-- cell&#45;&#45;device -->
<g id="edge4" class="edge">
<title>cell&#45;&#45;device</title>
<path fill="none" stroke="#7f7f7f" stroke-dasharray="5,2" d="M557.12,-671.59C581,-671.81 606.07,-671.8 629.94,-671.58"/>
<text text-anchor="start" x="604.94" y="-675.38" font-family="Times New Roman,serif" font-size="14.00">0..N</text>
<text text-anchor="start" x="557.12" y="-675.39" font-family="Times New Roman,serif" font-size="14.00">1</text>
</g>
<!-- project -->
<g id="node5" class="node">
<title>project</title>
<polygon fill="none" stroke="black" points="8,-579 8,-607 234,-607 234,-579 8,-579"/>
<text text-anchor="start" x="94" y="-590.2" font-family="Helvetica,sans-Serif" font-weight="bold" font-size="16.00">project</text>
<polygon fill="none" stroke="black" points="8,-554 8,-579 234,-579 234,-554 8,-554"/>
<text text-anchor="start" x="13" y="-563.8" font-family="Helvetica,sans-Serif" text-decoration="underline" font-size="14.00">id</text>
<text text-anchor="start" x="24" y="-563.8" font-family="Helvetica,sans-Serif" font-size="14.00"> [INTEGER]</text>
<text text-anchor="start" x="97" y="-563.8" font-family="Helvetica,sans-Serif" font-size="14.00"> NOT NULL</text>
<polygon fill="none" stroke="black" points="8,-529 8,-554 234,-554 234,-529 8,-529"/>
<text text-anchor="start" x="13" y="-538.8" font-family="Helvetica,sans-Serif" font-size="14.00">description</text>
<text text-anchor="start" x="79" y="-538.8" font-family="Helvetica,sans-Serif" font-size="14.00"> [VARCHAR]</text>
<polygon fill="none" stroke="black" points="8,-504 8,-529 234,-529 234,-504 8,-504"/>
<text text-anchor="start" x="13" y="-513.8" font-family="Helvetica,sans-Serif" font-size="14.00">name</text>
<text text-anchor="start" x="48" y="-513.8" font-family="Helvetica,sans-Serif" font-size="14.00"> [VARCHAR]</text>
<text text-anchor="start" x="125" y="-513.8" font-family="Helvetica,sans-Serif" font-size="14.00"> NOT NULL</text>
<polygon fill="none" stroke="black" points="8,-479 8,-504 234,-504 234,-479 8,-479"/>
<text text-anchor="start" x="13" y="-488.8" font-family="Helvetica,sans-Serif" font-size="14.00">suffix</text>
<text text-anchor="start" x="45" y="-488.8" font-family="Helvetica,sans-Serif" font-size="14.00"> [VARCHAR]</text>
<text text-anchor="start" x="122" y="-488.8" font-family="Helvetica,sans-Serif" font-size="14.00"> NOT NULL</text>
<polygon fill="none" stroke="black" points="8,-454 8,-479 234,-479 234,-454 8,-454"/>
<text text-anchor="start" x="13" y="-463.8" font-family="Helvetica,sans-Serif" font-size="14.00">timestamp</text>
<text text-anchor="start" x="77" y="-463.8" font-family="Helvetica,sans-Serif" font-size="14.00"> [DATETIME]</text>
<text text-anchor="start" x="157" y="-463.8" font-family="Helvetica,sans-Serif" font-size="14.00"> NOT NULL</text>
</g>
<!-- project&#45;&#45;cell -->
<g id="edge5" class="edge">
<title>project&#45;&#45;cell</title>
<path fill="none" stroke="#7f7f7f" stroke-dasharray="5,2" d="M242.12,-582.42C266,-592.65 291.07,-603.38 314.94,-613.6"/>
<text text-anchor="start" x="289.94" y="-602.4" font-family="Times New Roman,serif" font-size="14.00">0..N</text>
<text text-anchor="start" x="242.12" y="-571.22" font-family="Times New Roman,serif" font-size="14.00">1</text>
</g>
<!-- wafer -->
<g id="node6" class="node">
<title>wafer</title>
<polygon fill="none" stroke="black" points="323,-471 323,-499 549,-499 549,-471 323,-471"/>
<text text-anchor="start" x="414.5" y="-482.2" font-family="Helvetica,sans-Serif" font-weight="bold" font-size="16.00">wafer</text>
<polygon fill="none" stroke="black" points="323,-446 323,-471 549,-471 549,-446 323,-446"/>
<text text-anchor="start" x="328" y="-455.8" font-family="Helvetica,sans-Serif" text-decoration="underline" font-size="14.00">id</text>
<text text-anchor="start" x="339" y="-455.8" font-family="Helvetica,sans-Serif" font-size="14.00"> [INTEGER]</text>
<text text-anchor="start" x="412" y="-455.8" font-family="Helvetica,sans-Serif" font-size="14.00"> NOT NULL</text>
<polygon fill="none" stroke="black" points="323,-421 323,-446 549,-446 549,-421 323,-421"/>
<text text-anchor="start" x="328" y="-430.8" font-family="Helvetica,sans-Serif" font-size="14.00">attributes</text>
<text text-anchor="start" x="384" y="-430.8" font-family="Helvetica,sans-Serif" font-size="14.00"> [JSON]</text>
<polygon fill="none" stroke="black" points="323,-396 323,-421 549,-421 549,-396 323,-396"/>
<text text-anchor="start" x="328" y="-405.8" font-family="Helvetica,sans-Serif" font-size="14.00">description</text>
<text text-anchor="start" x="394" y="-405.8" font-family="Helvetica,sans-Serif" font-size="14.00"> [VARCHAR]</text>
<polygon fill="none" stroke="black" points="323,-371 323,-396 549,-396 549,-371 323,-371"/>
<text text-anchor="start" x="328" y="-380.8" font-family="Helvetica,sans-Serif" font-size="14.00">lot_name</text>
<text text-anchor="start" x="385" y="-380.8" font-family="Helvetica,sans-Serif" font-size="14.00"> [VARCHAR]</text>
<polygon fill="none" stroke="black" points="323,-346 323,-371 549,-371 549,-346 323,-346"/>
<text text-anchor="start" x="328" y="-355.8" font-family="Helvetica,sans-Serif" font-size="14.00">name</text>
<text text-anchor="start" x="363" y="-355.8" font-family="Helvetica,sans-Serif" font-size="14.00"> [VARCHAR]</text>
<text text-anchor="start" x="440" y="-355.8" font-family="Helvetica,sans-Serif" font-size="14.00"> NOT NULL</text>
<polygon fill="none" stroke="black" points="323,-321 323,-346 549,-346 549,-321 323,-321"/>
<text text-anchor="start" x="328" y="-330.8" font-family="Helvetica,sans-Serif" font-size="14.00">project_pkey</text>
<text text-anchor="start" x="387" y="-330.8" font-family="Helvetica,sans-Serif" font-size="14.00"> [INTEGER]</text>
<text text-anchor="start" x="460" y="-330.8" font-family="Helvetica,sans-Serif" font-size="14.00"> NOT NULL</text>
<polygon fill="none" stroke="black" points="323,-296 323,-321 549,-321 549,-296 323,-296"/>
<text text-anchor="start" x="328" y="-305.8" font-family="Helvetica,sans-Serif" font-size="14.00">timestamp</text>
<text text-anchor="start" x="392" y="-305.8" font-family="Helvetica,sans-Serif" font-size="14.00"> [DATETIME]</text>
<text text-anchor="start" x="472" y="-305.8" font-family="Helvetica,sans-Serif" font-size="14.00"> NOT NULL</text>
</g>
<!-- project&#45;&#45;wafer -->
<g id="edge6" class="edge">
<title>project&#45;&#45;wafer</title>
<path fill="none" stroke="#7f7f7f" stroke-dasharray="5,2" d="M242.12,-479.96C266,-469.81 291.07,-459.16 314.94,-449.01"/>
<text text-anchor="start" x="289.94" y="-437.81" font-family="Times New Roman,serif" font-size="14.00">0..N</text>
<text text-anchor="start" x="242.12" y="-468.76" font-family="Times New Roman,serif" font-size="14.00">1</text>
</g>
<!-- wafer&#45;&#45;analysis -->
<g id="edge9" class="edge">
<title>wafer&#45;&#45;analysis</title>
<path fill="none" stroke="#7f7f7f" stroke-dasharray="5,2" d="M557.08,-317.05C580.5,-304.01 605.43,-291.89 630,-283 680.78,-264.63 696,-264 750,-264 750,-264 750,-264 1095,-264 1167.79,-264 1248.61,-267.78 1315.79,-271.98"/>
<text text-anchor="start" x="1290.79" y="-260.78" font-family="Times New Roman,serif" font-size="14.00">0..N</text>
<text text-anchor="start" x="557.08" y="-305.85" font-family="Times New Roman,serif" font-size="14.00">{0,1}</text>
</g>
<!-- die -->
<g id="node7" class="node">
<title>die</title>
<polygon fill="none" stroke="black" points="638,-471 638,-499 864,-499 864,-471 638,-471"/>
<text text-anchor="start" x="739" y="-482.2" font-family="Helvetica,sans-Serif" font-weight="bold" font-size="16.00">die</text>
<polygon fill="none" stroke="black" points="638,-446 638,-471 864,-471 864,-446 638,-446"/>
<text text-anchor="start" x="643" y="-455.8" font-family="Helvetica,sans-Serif" text-decoration="underline" font-size="14.00">id</text>
<text text-anchor="start" x="654" y="-455.8" font-family="Helvetica,sans-Serif" font-size="14.00"> [INTEGER]</text>
<text text-anchor="start" x="727" y="-455.8" font-family="Helvetica,sans-Serif" font-size="14.00"> NOT NULL</text>
<polygon fill="none" stroke="black" points="638,-421 638,-446 864,-446 864,-421 638,-421"/>
<text text-anchor="start" x="643" y="-430.8" font-family="Helvetica,sans-Serif" font-size="14.00">attributes</text>
<text text-anchor="start" x="699" y="-430.8" font-family="Helvetica,sans-Serif" font-size="14.00"> [JSON]</text>
<polygon fill="none" stroke="black" points="638,-396 638,-421 864,-421 864,-396 638,-396"/>
<text text-anchor="start" x="643" y="-405.8" font-family="Helvetica,sans-Serif" font-size="14.00">name</text>
<text text-anchor="start" x="678" y="-405.8" font-family="Helvetica,sans-Serif" font-size="14.00"> [VARCHAR]</text>
<polygon fill="none" stroke="black" points="638,-371 638,-396 864,-396 864,-371 638,-371"/>
<text text-anchor="start" x="643" y="-380.8" font-family="Helvetica,sans-Serif" font-size="14.00">timestamp</text>
<text text-anchor="start" x="707" y="-380.8" font-family="Helvetica,sans-Serif" font-size="14.00"> [DATETIME]</text>
<text text-anchor="start" x="787" y="-380.8" font-family="Helvetica,sans-Serif" font-size="14.00"> NOT NULL</text>
<polygon fill="none" stroke="black" points="638,-346 638,-371 864,-371 864,-346 638,-346"/>
<text text-anchor="start" x="643" y="-355.8" font-family="Helvetica,sans-Serif" font-size="14.00">wafer_pkey</text>
<text text-anchor="start" x="695" y="-355.8" font-family="Helvetica,sans-Serif" font-size="14.00"> [INTEGER]</text>
<text text-anchor="start" x="768" y="-355.8" font-family="Helvetica,sans-Serif" font-size="14.00"> NOT NULL</text>
<polygon fill="none" stroke="black" points="638,-321 638,-346 864,-346 864,-321 638,-321"/>
<text text-anchor="start" x="643" y="-330.8" font-family="Helvetica,sans-Serif" font-size="14.00">x</text>
<text text-anchor="start" x="650" y="-330.8" font-family="Helvetica,sans-Serif" font-size="14.00"> [INTEGER]</text>
<text text-anchor="start" x="723" y="-330.8" font-family="Helvetica,sans-Serif" font-size="14.00"> NOT NULL</text>
<polygon fill="none" stroke="black" points="638,-296 638,-321 864,-321 864,-296 638,-296"/>
<text text-anchor="start" x="643" y="-305.8" font-family="Helvetica,sans-Serif" font-size="14.00">y</text>
<text text-anchor="start" x="650" y="-305.8" font-family="Helvetica,sans-Serif" font-size="14.00"> [INTEGER]</text>
<text text-anchor="start" x="723" y="-305.8" font-family="Helvetica,sans-Serif" font-size="14.00"> NOT NULL</text>
</g>
<!-- wafer&#45;&#45;die -->
<g id="edge10" class="edge">
<title>wafer&#45;&#45;die</title>
<path fill="none" stroke="#7f7f7f" stroke-dasharray="5,2" d="M557.12,-398C581,-398 606.07,-398 629.94,-398"/>
<text text-anchor="start" x="604.94" y="-386.8" font-family="Times New Roman,serif" font-size="14.00">0..N</text>
<text text-anchor="start" x="557.12" y="-386.8" font-family="Times New Roman,serif" font-size="14.00">1</text>
</g>
<!-- die&#45;&#45;analysis -->
<g id="edge7" class="edge">
<title>die&#45;&#45;analysis</title>
<path fill="none" stroke="#7f7f7f" stroke-dasharray="5,2" d="M872.19,-343.52C895.91,-334.64 920.92,-326.55 945,-321 1067.99,-292.65 1211.4,-283.97 1315.85,-281.91"/>
<text text-anchor="start" x="1290.85" y="-285.71" font-family="Times New Roman,serif" font-size="14.00">0..N</text>
<text text-anchor="start" x="872.19" y="-332.32" font-family="Times New Roman,serif" font-size="14.00">{0,1}</text>
</g>
<!-- die&#45;&#45;device_data -->
<g id="edge8" class="edge">
<title>die&#45;&#45;device_data</title>
<path fill="none" stroke="#7f7f7f" stroke-dasharray="5,2" d="M872.22,-429.03C902.23,-436.77 934.52,-445.1 964.9,-452.94"/>
<text text-anchor="start" x="939.9" y="-441.74" font-family="Times New Roman,serif" font-size="14.00">0..N</text>
<text text-anchor="start" x="872.22" y="-417.83" font-family="Times New Roman,serif" font-size="14.00">{0,1}</text>
</g>
<!-- analysis_function -->
<g id="node8" class="node">
<title>analysis_function</title>
<polygon fill="none" stroke="black" points="953,-204 953,-232 1235,-232 1235,-204 953,-204"/>
<text text-anchor="start" x="1026" y="-215.2" font-family="Helvetica,sans-Serif" font-weight="bold" font-size="16.00">analysis_function</text>
<polygon fill="none" stroke="black" points="953,-179 953,-204 1235,-204 1235,-179 953,-179"/>
<text text-anchor="start" x="958" y="-188.8" font-family="Helvetica,sans-Serif" text-decoration="underline" font-size="14.00">id</text>
<text text-anchor="start" x="969" y="-188.8" font-family="Helvetica,sans-Serif" font-size="14.00"> [INTEGER]</text>
<text text-anchor="start" x="1042" y="-188.8" font-family="Helvetica,sans-Serif" font-size="14.00"> NOT NULL</text>
<polygon fill="none" stroke="black" points="953,-154 953,-179 1235,-179 1235,-154 953,-154"/>
<text text-anchor="start" x="958" y="-163.8" font-family="Helvetica,sans-Serif" font-size="14.00">function_path</text>
<text text-anchor="start" x="1040" y="-163.8" font-family="Helvetica,sans-Serif" font-size="14.00"> [VARCHAR]</text>
<text text-anchor="start" x="1117" y="-163.8" font-family="Helvetica,sans-Serif" font-size="14.00"> NOT NULL</text>
<polygon fill="none" stroke="black" points="953,-129 953,-154 1235,-154 1235,-129 953,-129"/>
<text text-anchor="start" x="958" y="-138.8" font-family="Helvetica,sans-Serif" font-size="14.00">hash</text>
<text text-anchor="start" x="988" y="-138.8" font-family="Helvetica,sans-Serif" font-size="14.00"> [VARCHAR]</text>
<text text-anchor="start" x="1065" y="-138.8" font-family="Helvetica,sans-Serif" font-size="14.00"> NOT NULL</text>
<polygon fill="none" stroke="black" points="953,-104 953,-129 1235,-129 1235,-104 953,-104"/>
<text text-anchor="start" x="958" y="-113.8" font-family="Helvetica,sans-Serif" font-size="14.00">name</text>
<text text-anchor="start" x="993" y="-113.8" font-family="Helvetica,sans-Serif" font-size="14.00"> [VARCHAR]</text>
<text text-anchor="start" x="1070" y="-113.8" font-family="Helvetica,sans-Serif" font-size="14.00"> NOT NULL</text>
<polygon fill="none" stroke="black" points="953,-79 953,-104 1235,-104 1235,-79 953,-79"/>
<text text-anchor="start" x="958" y="-88.8" font-family="Helvetica,sans-Serif" font-size="14.00">target_model</text>
<text text-anchor="start" x="1038" y="-88.8" font-family="Helvetica,sans-Serif" font-size="14.00"> [VARCHAR(11)]</text>
<text text-anchor="start" x="1138" y="-88.8" font-family="Helvetica,sans-Serif" font-size="14.00"> NOT NULL</text>
<polygon fill="none" stroke="black" points="953,-54 953,-79 1235,-79 1235,-54 953,-54"/>
<text text-anchor="start" x="958" y="-63.8" font-family="Helvetica,sans-Serif" font-size="14.00">test_target_model_pkey</text>
<text text-anchor="start" x="1085" y="-63.8" font-family="Helvetica,sans-Serif" font-size="14.00"> [INTEGER]</text>
<text text-anchor="start" x="1158" y="-63.8" font-family="Helvetica,sans-Serif" font-size="14.00"> NOT NULL</text>
<polygon fill="none" stroke="black" points="953,-29 953,-54 1235,-54 1235,-29 953,-29"/>
<text text-anchor="start" x="958" y="-38.8" font-family="Helvetica,sans-Serif" font-size="14.00">timestamp</text>
<text text-anchor="start" x="1022" y="-38.8" font-family="Helvetica,sans-Serif" font-size="14.00"> [DATETIME]</text>
<text text-anchor="start" x="1102" y="-38.8" font-family="Helvetica,sans-Serif" font-size="14.00"> NOT NULL</text>
<polygon fill="none" stroke="black" points="953,-4 953,-29 1235,-29 1235,-4 953,-4"/>
<text text-anchor="start" x="958" y="-13.8" font-family="Helvetica,sans-Serif" font-size="14.00">version</text>
<text text-anchor="start" x="1002" y="-13.8" font-family="Helvetica,sans-Serif" font-size="14.00"> [INTEGER]</text>
<text text-anchor="start" x="1075" y="-13.8" font-family="Helvetica,sans-Serif" font-size="14.00"> NOT NULL</text>
</g>
<!-- analysis_function&#45;&#45;analysis -->
<g id="edge11" class="edge">
<title>analysis_function&#45;&#45;analysis</title>
<path fill="none" stroke="#7f7f7f" stroke-dasharray="5,2" d="M1243.01,-184.64C1267.05,-195.46 1291.93,-206.66 1315.91,-217.46"/>
<text text-anchor="start" x="1290.91" y="-206.26" font-family="Times New Roman,serif" font-size="14.00">0..N</text>
<text text-anchor="start" x="1243.01" y="-173.44" font-family="Times New Roman,serif" font-size="14.00">1</text>
</g>
</g>
</svg>
