<?xml version="1.0" encoding="utf-8" standalone="no"?>
<!DOCTYPE svg PUBLIC "-//W3C//DTD SVG 1.1//EN"
  "http://www.w3.org/Graphics/SVG/1.1/DTD/svg11.dtd">
<svg xmlns:xlink="http://www.w3.org/1999/xlink" width="460.8pt" height="345.6pt" viewBox="0 0 460.8 345.6" xmlns="http://www.w3.org/2000/svg" version="1.1">
 <metadata>
  <rdf:RDF xmlns:dc="http://purl.org/dc/elements/1.1/" xmlns:cc="http://creativecommons.org/ns#" xmlns:rdf="http://www.w3.org/1999/02/22-rdf-syntax-ns#">
   <cc:Work>
    <dc:type rdf:resource="http://purl.org/dc/dcmitype/StillImage"/>
    <dc:date>2024-11-19T14:50:47.493325</dc:date>
    <dc:format>image/svg+xml</dc:format>
    <dc:creator>
     <cc:Agent>
      <dc:title>Matplotlib v3.9.2, https://matplotlib.org/</dc:title>
     </cc:Agent>
    </dc:creator>
   </cc:Work>
  </rdf:RDF>
 </metadata>
 <defs>
  <style type="text/css">*{stroke-linejoin: round; stroke-linecap: butt}</style>
 </defs>
 <g id="figure_1">
  <g id="patch_1">
   <path d="M 0 345.6 
L 460.8 345.6 
L 460.8 0 
L 0 0 
z
" style="fill: #ffffff"/>
  </g>
  <g id="axes_1">
   <g id="patch_2">
    <path d="M 342.6048 174.528 
C 342.6048 174.528 342.6048 174.528 342.6048 174.528 
L 236.16 174.528 
z
" style="fill: #1f77b4"/>
   </g>
   <g id="patch_3">
    <path d="M 342.6048 174.528 
C 342.6048 160.549797 339.851399 146.707514 334.502172 133.793339 
C 329.152945 120.879163 321.311922 109.144242 311.42784 99.26016 
C 301.543758 89.376078 289.808837 81.535055 276.894661 76.185828 
C 263.980486 70.836601 250.138203 68.0832 236.16 68.0832 
C 222.181797 68.0832 208.339514 70.836601 195.425339 76.185828 
C 182.511163 81.535055 170.776242 89.376078 160.89216 99.26016 
C 151.008078 109.144242 143.167055 120.879163 137.817828 133.793339 
C 132.468601 146.707514 129.7152 160.549797 129.7152 174.528 
C 129.7152 188.506203 132.468601 202.348486 137.817828 215.262661 
C 143.167055 228.176837 151.008078 239.911758 160.89216 249.79584 
C 170.776242 259.679922 182.511163 267.520945 195.425339 272.870172 
C 208.339514 278.219399 222.181797 280.9728 236.16 280.9728 
C 250.138203 280.9728 263.980486 278.219399 276.894661 272.870172 
C 289.808837 267.520945 301.543758 259.679922 311.42784 249.79584 
C 321.311922 239.911758 329.152945 228.176837 334.502172 215.262661 
C 339.851399 202.348486 342.6048 188.506203 342.6048 174.528 
M 236.16 174.528 
z
" style="fill: #ff7f0e"/>
   </g>
   <g id="matplotlib.axis_1"/>
   <g id="matplotlib.axis_2"/>
   <g id="text_1">
    <!-- with quality  -->
    <g transform="translate(353.24928 171.688469) scale(0.1 -0.1)">
     <defs>
      <path id="DejaVuSans-77" d="M 269 3500 
L 844 3500 
L 1563 769 
L 2278 3500 
L 2956 3500 
L 3675 769 
L 4391 3500 
L 4966 3500 
L 4050 0 
L 3372 0 
L 2619 2869 
L 1863 0 
L 1184 0 
L 269 3500 
z
" transform="scale(0.015625)"/>
      <path id="DejaVuSans-69" d="M 603 3500 
L 1178 3500 
L 1178 0 
L 603 0 
L 603 3500 
z
M 603 4863 
L 1178 4863 
L 1178 4134 
L 603 4134 
L 603 4863 
z
" transform="scale(0.015625)"/>
      <path id="DejaVuSans-74" d="M 1172 4494 
L 1172 3500 
L 2356 3500 
L 2356 3053 
L 1172 3053 
L 1172 1153 
Q 1172 725 1289 603 
Q 1406 481 1766 481 
L 2356 481 
L 2356 0 
L 1766 0 
Q 1100 0 847 248 
Q 594 497 594 1153 
L 594 3053 
L 172 3053 
L 172 3500 
L 594 3500 
L 594 4494 
L 1172 4494 
z
" transform="scale(0.015625)"/>
      <path id="DejaVuSans-68" d="M 3513 2113 
L 3513 0 
L 2938 0 
L 2938 2094 
Q 2938 2591 2744 2837 
Q 2550 3084 2163 3084 
Q 1697 3084 1428 2787 
Q 1159 2491 1159 1978 
L 1159 0 
L 581 0 
L 581 4863 
L 1159 4863 
L 1159 2956 
Q 1366 3272 1645 3428 
Q 1925 3584 2291 3584 
Q 2894 3584 3203 3211 
Q 3513 2838 3513 2113 
z
" transform="scale(0.015625)"/>
      <path id="DejaVuSans-20" transform="scale(0.015625)"/>
      <path id="DejaVuSans-71" d="M 947 1747 
Q 947 1113 1208 752 
Q 1469 391 1925 391 
Q 2381 391 2643 752 
Q 2906 1113 2906 1747 
Q 2906 2381 2643 2742 
Q 2381 3103 1925 3103 
Q 1469 3103 1208 2742 
Q 947 2381 947 1747 
z
M 2906 525 
Q 2725 213 2448 61 
Q 2172 -91 1784 -91 
Q 1150 -91 751 415 
Q 353 922 353 1747 
Q 353 2572 751 3078 
Q 1150 3584 1784 3584 
Q 2172 3584 2448 3432 
Q 2725 3281 2906 2969 
L 2906 3500 
L 3481 3500 
L 3481 -1331 
L 2906 -1331 
L 2906 525 
z
" transform="scale(0.015625)"/>
      <path id="DejaVuSans-75" d="M 544 1381 
L 544 3500 
L 1119 3500 
L 1119 1403 
Q 1119 906 1312 657 
Q 1506 409 1894 409 
Q 2359 409 2629 706 
Q 2900 1003 2900 1516 
L 2900 3500 
L 3475 3500 
L 3475 0 
L 2900 0 
L 2900 538 
Q 2691 219 2414 64 
Q 2138 -91 1772 -91 
Q 1169 -91 856 284 
Q 544 659 544 1381 
z
M 1991 3584 
L 1991 3584 
z
" transform="scale(0.015625)"/>
      <path id="DejaVuSans-61" d="M 2194 1759 
Q 1497 1759 1228 1600 
Q 959 1441 959 1056 
Q 959 750 1161 570 
Q 1363 391 1709 391 
Q 2188 391 2477 730 
Q 2766 1069 2766 1631 
L 2766 1759 
L 2194 1759 
z
M 3341 1997 
L 3341 0 
L 2766 0 
L 2766 531 
Q 2569 213 2275 61 
Q 1981 -91 1556 -91 
Q 1019 -91 701 211 
Q 384 513 384 1019 
Q 384 1609 779 1909 
Q 1175 2209 1959 2209 
L 2766 2209 
L 2766 2266 
Q 2766 2663 2505 2880 
Q 2244 3097 1772 3097 
Q 1472 3097 1187 3025 
Q 903 2953 641 2809 
L 641 3341 
Q 956 3463 1253 3523 
Q 1550 3584 1831 3584 
Q 2591 3584 2966 3190 
Q 3341 2797 3341 1997 
z
" transform="scale(0.015625)"/>
      <path id="DejaVuSans-6c" d="M 603 4863 
L 1178 4863 
L 1178 0 
L 603 0 
L 603 4863 
z
" transform="scale(0.015625)"/>
      <path id="DejaVuSans-79" d="M 2059 -325 
Q 1816 -950 1584 -1140 
Q 1353 -1331 966 -1331 
L 506 -1331 
L 506 -850 
L 844 -850 
Q 1081 -850 1212 -737 
Q 1344 -625 1503 -206 
L 1606 56 
L 191 3500 
L 800 3500 
L 1894 763 
L 2988 3500 
L 3597 3500 
L 2059 -325 
z
" transform="scale(0.015625)"/>
     </defs>
     <use xlink:href="#DejaVuSans-77"/>
     <use xlink:href="#DejaVuSans-69" x="81.787109"/>
     <use xlink:href="#DejaVuSans-74" x="109.570312"/>
     <use xlink:href="#DejaVuSans-68" x="148.779297"/>
     <use xlink:href="#DejaVuSans-20" x="212.158203"/>
     <use xlink:href="#DejaVuSans-71" x="243.945312"/>
     <use xlink:href="#DejaVuSans-75" x="307.421875"/>
     <use xlink:href="#DejaVuSans-61" x="370.800781"/>
     <use xlink:href="#DejaVuSans-6c" x="432.080078"/>
     <use xlink:href="#DejaVuSans-69" x="459.863281"/>
     <use xlink:href="#DejaVuSans-74" x="487.646484"/>
     <use xlink:href="#DejaVuSans-79" x="526.855469"/>
     <use xlink:href="#DejaVuSans-20" x="586.035156"/>
    </g>
    <!-- measurements -->
    <g transform="translate(353.24928 182.886281) scale(0.1 -0.1)">
     <defs>
      <path id="DejaVuSans-6d" d="M 3328 2828 
Q 3544 3216 3844 3400 
Q 4144 3584 4550 3584 
Q 5097 3584 5394 3201 
Q 5691 2819 5691 2113 
L 5691 0 
L 5113 0 
L 5113 2094 
Q 5113 2597 4934 2840 
Q 4756 3084 4391 3084 
Q 3944 3084 3684 2787 
Q 3425 2491 3425 1978 
L 3425 0 
L 2847 0 
L 2847 2094 
Q 2847 2600 2669 2842 
Q 2491 3084 2119 3084 
Q 1678 3084 1418 2786 
Q 1159 2488 1159 1978 
L 1159 0 
L 581 0 
L 581 3500 
L 1159 3500 
L 1159 2956 
Q 1356 3278 1631 3431 
Q 1906 3584 2284 3584 
Q 2666 3584 2933 3390 
Q 3200 3197 3328 2828 
z
" transform="scale(0.015625)"/>
      <path id="DejaVuSans-65" d="M 3597 1894 
L 3597 1613 
L 953 1613 
Q 991 1019 1311 708 
Q 1631 397 2203 397 
Q 2534 397 2845 478 
Q 3156 559 3463 722 
L 3463 178 
Q 3153 47 2828 -22 
Q 2503 -91 2169 -91 
Q 1331 -91 842 396 
Q 353 884 353 1716 
Q 353 2575 817 3079 
Q 1281 3584 2069 3584 
Q 2775 3584 3186 3129 
Q 3597 2675 3597 1894 
z
M 3022 2063 
Q 3016 2534 2758 2815 
Q 2500 3097 2075 3097 
Q 1594 3097 1305 2825 
Q 1016 2553 972 2059 
L 3022 2063 
z
" transform="scale(0.015625)"/>
      <path id="DejaVuSans-73" d="M 2834 3397 
L 2834 2853 
Q 2591 2978 2328 3040 
Q 2066 3103 1784 3103 
Q 1356 3103 1142 2972 
Q 928 2841 928 2578 
Q 928 2378 1081 2264 
Q 1234 2150 1697 2047 
L 1894 2003 
Q 2506 1872 2764 1633 
Q 3022 1394 3022 966 
Q 3022 478 2636 193 
Q 2250 -91 1575 -91 
Q 1294 -91 989 -36 
Q 684 19 347 128 
L 347 722 
Q 666 556 975 473 
Q 1284 391 1588 391 
Q 1994 391 2212 530 
Q 2431 669 2431 922 
Q 2431 1156 2273 1281 
Q 2116 1406 1581 1522 
L 1381 1569 
Q 847 1681 609 1914 
Q 372 2147 372 2553 
Q 372 3047 722 3315 
Q 1072 3584 1716 3584 
Q 2034 3584 2315 3537 
Q 2597 3491 2834 3397 
z
" transform="scale(0.015625)"/>
      <path id="DejaVuSans-72" d="M 2631 2963 
Q 2534 3019 2420 3045 
Q 2306 3072 2169 3072 
Q 1681 3072 1420 2755 
Q 1159 2438 1159 1844 
L 1159 0 
L 581 0 
L 581 3500 
L 1159 3500 
L 1159 2956 
Q 1341 3275 1631 3429 
Q 1922 3584 2338 3584 
Q 2397 3584 2469 3576 
Q 2541 3569 2628 3553 
L 2631 2963 
z
" transform="scale(0.015625)"/>
      <path id="DejaVuSans-6e" d="M 3513 2113 
L 3513 0 
L 2938 0 
L 2938 2094 
Q 2938 2591 2744 2837 
Q 2550 3084 2163 3084 
Q 1697 3084 1428 2787 
Q 1159 2491 1159 1978 
L 1159 0 
L 581 0 
L 581 3500 
L 1159 3500 
L 1159 2956 
Q 1366 3272 1645 3428 
Q 1925 3584 2291 3584 
Q 2894 3584 3203 3211 
Q 3513 2838 3513 2113 
z
" transform="scale(0.015625)"/>
     </defs>
     <use xlink:href="#DejaVuSans-6d"/>
     <use xlink:href="#DejaVuSans-65" x="97.412109"/>
     <use xlink:href="#DejaVuSans-61" x="158.935547"/>
     <use xlink:href="#DejaVuSans-73" x="220.214844"/>
     <use xlink:href="#DejaVuSans-75" x="272.314453"/>
     <use xlink:href="#DejaVuSans-72" x="335.693359"/>
     <use xlink:href="#DejaVuSans-65" x="374.556641"/>
     <use xlink:href="#DejaVuSans-6d" x="436.080078"/>
     <use xlink:href="#DejaVuSans-65" x="533.492188"/>
     <use xlink:href="#DejaVuSans-6e" x="595.015625"/>
     <use xlink:href="#DejaVuSans-74" x="658.394531"/>
     <use xlink:href="#DejaVuSans-73" x="697.603516"/>
    </g>
   </g>
   <g id="text_2">
    <!-- without quality  -->
    <g transform="translate(40.91447 171.688479) scale(0.1 -0.1)">
     <defs>
      <path id="DejaVuSans-6f" d="M 1959 3097 
Q 1497 3097 1228 2736 
Q 959 2375 959 1747 
Q 959 1119 1226 758 
Q 1494 397 1959 397 
Q 2419 397 2687 759 
Q 2956 1122 2956 1747 
Q 2956 2369 2687 2733 
Q 2419 3097 1959 3097 
z
M 1959 3584 
Q 2709 3584 3137 3096 
Q 3566 2609 3566 1747 
Q 3566 888 3137 398 
Q 2709 -91 1959 -91 
Q 1206 -91 779 398 
Q 353 888 353 1747 
Q 353 2609 779 3096 
Q 1206 3584 1959 3584 
z
" transform="scale(0.015625)"/>
     </defs>
     <use xlink:href="#DejaVuSans-77"/>
     <use xlink:href="#DejaVuSans-69" x="81.787109"/>
     <use xlink:href="#DejaVuSans-74" x="109.570312"/>
     <use xlink:href="#DejaVuSans-68" x="148.779297"/>
     <use xlink:href="#DejaVuSans-6f" x="212.158203"/>
     <use xlink:href="#DejaVuSans-75" x="273.339844"/>
     <use xlink:href="#DejaVuSans-74" x="336.71875"/>
     <use xlink:href="#DejaVuSans-20" x="375.927734"/>
     <use xlink:href="#DejaVuSans-71" x="407.714844"/>
     <use xlink:href="#DejaVuSans-75" x="471.191406"/>
     <use xlink:href="#DejaVuSans-61" x="534.570312"/>
     <use xlink:href="#DejaVuSans-6c" x="595.849609"/>
     <use xlink:href="#DejaVuSans-69" x="623.632812"/>
     <use xlink:href="#DejaVuSans-74" x="651.416016"/>
     <use xlink:href="#DejaVuSans-79" x="690.625"/>
     <use xlink:href="#DejaVuSans-20" x="749.804688"/>
    </g>
    <!-- measurements -->
    <g transform="translate(44.10197 182.886291) scale(0.1 -0.1)">
     <use xlink:href="#DejaVuSans-6d"/>
     <use xlink:href="#DejaVuSans-65" x="97.412109"/>
     <use xlink:href="#DejaVuSans-61" x="158.935547"/>
     <use xlink:href="#DejaVuSans-73" x="220.214844"/>
     <use xlink:href="#DejaVuSans-75" x="272.314453"/>
     <use xlink:href="#DejaVuSans-72" x="335.693359"/>
     <use xlink:href="#DejaVuSans-65" x="374.556641"/>
     <use xlink:href="#DejaVuSans-6d" x="436.080078"/>
     <use xlink:href="#DejaVuSans-65" x="533.492188"/>
     <use xlink:href="#DejaVuSans-6e" x="595.015625"/>
     <use xlink:href="#DejaVuSans-74" x="658.394531"/>
     <use xlink:href="#DejaVuSans-73" x="697.603516"/>
    </g>
   </g>
   <g id="text_3">
    <!-- fraction of input datasets that has  -->
    <g transform="translate(131.855625 22.034625) scale(0.12 -0.12)">
     <defs>
      <path id="DejaVuSans-66" d="M 2375 4863 
L 2375 4384 
L 1825 4384 
Q 1516 4384 1395 4259 
Q 1275 4134 1275 3809 
L 1275 3500 
L 2222 3500 
L 2222 3053 
L 1275 3053 
L 1275 0 
L 697 0 
L 697 3053 
L 147 3053 
L 147 3500 
L 697 3500 
L 697 3744 
Q 697 4328 969 4595 
Q 1241 4863 1831 4863 
L 2375 4863 
z
" transform="scale(0.015625)"/>
      <path id="DejaVuSans-63" d="M 3122 3366 
L 3122 2828 
Q 2878 2963 2633 3030 
Q 2388 3097 2138 3097 
Q 1578 3097 1268 2742 
Q 959 2388 959 1747 
Q 959 1106 1268 751 
Q 1578 397 2138 397 
Q 2388 397 2633 464 
Q 2878 531 3122 666 
L 3122 134 
Q 2881 22 2623 -34 
Q 2366 -91 2075 -91 
Q 1284 -91 818 406 
Q 353 903 353 1747 
Q 353 2603 823 3093 
Q 1294 3584 2113 3584 
Q 2378 3584 2631 3529 
Q 2884 3475 3122 3366 
z
" transform="scale(0.015625)"/>
      <path id="DejaVuSans-70" d="M 1159 525 
L 1159 -1331 
L 581 -1331 
L 581 3500 
L 1159 3500 
L 1159 2969 
Q 1341 3281 1617 3432 
Q 1894 3584 2278 3584 
Q 2916 3584 3314 3078 
Q 3713 2572 3713 1747 
Q 3713 922 3314 415 
Q 2916 -91 2278 -91 
Q 1894 -91 1617 61 
Q 1341 213 1159 525 
z
M 3116 1747 
Q 3116 2381 2855 2742 
Q 2594 3103 2138 3103 
Q 1681 3103 1420 2742 
Q 1159 2381 1159 1747 
Q 1159 1113 1420 752 
Q 1681 391 2138 391 
Q 2594 391 2855 752 
Q 3116 1113 3116 1747 
z
" transform="scale(0.015625)"/>
      <path id="DejaVuSans-64" d="M 2906 2969 
L 2906 4863 
L 3481 4863 
L 3481 0 
L 2906 0 
L 2906 525 
Q 2725 213 2448 61 
Q 2172 -91 1784 -91 
Q 1150 -91 751 415 
Q 353 922 353 1747 
Q 353 2572 751 3078 
Q 1150 3584 1784 3584 
Q 2172 3584 2448 3432 
Q 2725 3281 2906 2969 
z
M 947 1747 
Q 947 1113 1208 752 
Q 1469 391 1925 391 
Q 2381 391 2643 752 
Q 2906 1113 2906 1747 
Q 2906 2381 2643 2742 
Q 2381 3103 1925 3103 
Q 1469 3103 1208 2742 
Q 947 2381 947 1747 
z
" transform="scale(0.015625)"/>
     </defs>
     <use xlink:href="#DejaVuSans-66"/>
     <use xlink:href="#DejaVuSans-72" x="35.205078"/>
     <use xlink:href="#DejaVuSans-61" x="76.318359"/>
     <use xlink:href="#DejaVuSans-63" x="137.597656"/>
     <use xlink:href="#DejaVuSans-74" x="192.578125"/>
     <use xlink:href="#DejaVuSans-69" x="231.787109"/>
     <use xlink:href="#DejaVuSans-6f" x="259.570312"/>
     <use xlink:href="#DejaVuSans-6e" x="320.751953"/>
     <use xlink:href="#DejaVuSans-20" x="384.130859"/>
     <use xlink:href="#DejaVuSans-6f" x="415.917969"/>
     <use xlink:href="#DejaVuSans-66" x="477.099609"/>
     <use xlink:href="#DejaVuSans-20" x="512.304688"/>
     <use xlink:href="#DejaVuSans-69" x="544.091797"/>
     <use xlink:href="#DejaVuSans-6e" x="571.875"/>
     <use xlink:href="#DejaVuSans-70" x="635.253906"/>
     <use xlink:href="#DejaVuSans-75" x="698.730469"/>
     <use xlink:href="#DejaVuSans-74" x="762.109375"/>
     <use xlink:href="#DejaVuSans-20" x="801.318359"/>
     <use xlink:href="#DejaVuSans-64" x="833.105469"/>
     <use xlink:href="#DejaVuSans-61" x="896.582031"/>
     <use xlink:href="#DejaVuSans-74" x="957.861328"/>
     <use xlink:href="#DejaVuSans-61" x="997.070312"/>
     <use xlink:href="#DejaVuSans-73" x="1058.349609"/>
     <use xlink:href="#DejaVuSans-65" x="1110.449219"/>
     <use xlink:href="#DejaVuSans-74" x="1171.972656"/>
     <use xlink:href="#DejaVuSans-73" x="1211.181641"/>
     <use xlink:href="#DejaVuSans-20" x="1263.28125"/>
     <use xlink:href="#DejaVuSans-74" x="1295.068359"/>
     <use xlink:href="#DejaVuSans-68" x="1334.277344"/>
     <use xlink:href="#DejaVuSans-61" x="1397.65625"/>
     <use xlink:href="#DejaVuSans-74" x="1458.935547"/>
     <use xlink:href="#DejaVuSans-20" x="1498.144531"/>
     <use xlink:href="#DejaVuSans-68" x="1529.931641"/>
     <use xlink:href="#DejaVuSans-61" x="1593.310547"/>
     <use xlink:href="#DejaVuSans-73" x="1654.589844"/>
     <use xlink:href="#DejaVuSans-20" x="1706.689453"/>
    </g>
    <!-- quality measurements (more is better) -->
    <g transform="translate(119.648438 35.472) scale(0.12 -0.12)">
     <defs>
      <path id="DejaVuSans-28" d="M 1984 4856 
Q 1566 4138 1362 3434 
Q 1159 2731 1159 2009 
Q 1159 1288 1364 580 
Q 1569 -128 1984 -844 
L 1484 -844 
Q 1016 -109 783 600 
Q 550 1309 550 2009 
Q 550 2706 781 3412 
Q 1013 4119 1484 4856 
L 1984 4856 
z
" transform="scale(0.015625)"/>
      <path id="DejaVuSans-62" d="M 3116 1747 
Q 3116 2381 2855 2742 
Q 2594 3103 2138 3103 
Q 1681 3103 1420 2742 
Q 1159 2381 1159 1747 
Q 1159 1113 1420 752 
Q 1681 391 2138 391 
Q 2594 391 2855 752 
Q 3116 1113 3116 1747 
z
M 1159 2969 
Q 1341 3281 1617 3432 
Q 1894 3584 2278 3584 
Q 2916 3584 3314 3078 
Q 3713 2572 3713 1747 
Q 3713 922 3314 415 
Q 2916 -91 2278 -91 
Q 1894 -91 1617 61 
Q 1341 213 1159 525 
L 1159 0 
L 581 0 
L 581 4863 
L 1159 4863 
L 1159 2969 
z
" transform="scale(0.015625)"/>
      <path id="DejaVuSans-29" d="M 513 4856 
L 1013 4856 
Q 1481 4119 1714 3412 
Q 1947 2706 1947 2009 
Q 1947 1309 1714 600 
Q 1481 -109 1013 -844 
L 513 -844 
Q 928 -128 1133 580 
Q 1338 1288 1338 2009 
Q 1338 2731 1133 3434 
Q 928 4138 513 4856 
z
" transform="scale(0.015625)"/>
     </defs>
     <use xlink:href="#DejaVuSans-71"/>
     <use xlink:href="#DejaVuSans-75" x="63.476562"/>
     <use xlink:href="#DejaVuSans-61" x="126.855469"/>
     <use xlink:href="#DejaVuSans-6c" x="188.134766"/>
     <use xlink:href="#DejaVuSans-69" x="215.917969"/>
     <use xlink:href="#DejaVuSans-74" x="243.701172"/>
     <use xlink:href="#DejaVuSans-79" x="282.910156"/>
     <use xlink:href="#DejaVuSans-20" x="342.089844"/>
     <use xlink:href="#DejaVuSans-6d" x="373.876953"/>
     <use xlink:href="#DejaVuSans-65" x="471.289062"/>
     <use xlink:href="#DejaVuSans-61" x="532.8125"/>
     <use xlink:href="#DejaVuSans-73" x="594.091797"/>
     <use xlink:href="#DejaVuSans-75" x="646.191406"/>
     <use xlink:href="#DejaVuSans-72" x="709.570312"/>
     <use xlink:href="#DejaVuSans-65" x="748.433594"/>
     <use xlink:href="#DejaVuSans-6d" x="809.957031"/>
     <use xlink:href="#DejaVuSans-65" x="907.369141"/>
     <use xlink:href="#DejaVuSans-6e" x="968.892578"/>
     <use xlink:href="#DejaVuSans-74" x="1032.271484"/>
     <use xlink:href="#DejaVuSans-73" x="1071.480469"/>
     <use xlink:href="#DejaVuSans-20" x="1123.580078"/>
     <use xlink:href="#DejaVuSans-28" x="1155.367188"/>
     <use xlink:href="#DejaVuSans-6d" x="1194.380859"/>
     <use xlink:href="#DejaVuSans-6f" x="1291.792969"/>
     <use xlink:href="#DejaVuSans-72" x="1352.974609"/>
     <use xlink:href="#DejaVuSans-65" x="1391.837891"/>
     <use xlink:href="#DejaVuSans-20" x="1453.361328"/>
     <use xlink:href="#DejaVuSans-69" x="1485.148438"/>
     <use xlink:href="#DejaVuSans-73" x="1512.931641"/>
     <use xlink:href="#DejaVuSans-20" x="1565.03125"/>
     <use xlink:href="#DejaVuSans-62" x="1596.818359"/>
     <use xlink:href="#DejaVuSans-65" x="1660.294922"/>
     <use xlink:href="#DejaVuSans-74" x="1721.818359"/>
     <use xlink:href="#DejaVuSans-74" x="1761.027344"/>
     <use xlink:href="#DejaVuSans-65" x="1800.236328"/>
     <use xlink:href="#DejaVuSans-72" x="1861.759766"/>
     <use xlink:href="#DejaVuSans-29" x="1902.873047"/>
    </g>
   </g>
   <g id="legend_1">
    <g id="patch_4">
     <path d="M 252.05975 302.584 
L 362.216 302.584 
Q 364.216 302.584 364.216 300.584 
L 364.216 249.832125 
Q 364.216 247.832125 362.216 247.832125 
L 252.05975 247.832125 
Q 250.05975 247.832125 250.05975 249.832125 
L 250.05975 300.584 
Q 250.05975 302.584 252.05975 302.584 
z
" style="fill: #ffffff; opacity: 0.8; stroke: #cccccc; stroke-linejoin: miter"/>
    </g>
    <g id="patch_5">
     <path d="M 254.05975 266.069312 
L 274.05975 266.069312 
L 274.05975 259.069312 
L 254.05975 259.069312 
z
" style="fill: #1f77b4"/>
    </g>
    <g id="text_4">
     <!-- with quality  -->
     <g transform="translate(282.05975 259.430562) scale(0.1 -0.1)">
      <use xlink:href="#DejaVuSans-77"/>
      <use xlink:href="#DejaVuSans-69" x="81.787109"/>
      <use xlink:href="#DejaVuSans-74" x="109.570312"/>
      <use xlink:href="#DejaVuSans-68" x="148.779297"/>
      <use xlink:href="#DejaVuSans-20" x="212.158203"/>
      <use xlink:href="#DejaVuSans-71" x="243.945312"/>
      <use xlink:href="#DejaVuSans-75" x="307.421875"/>
      <use xlink:href="#DejaVuSans-61" x="370.800781"/>
      <use xlink:href="#DejaVuSans-6c" x="432.080078"/>
      <use xlink:href="#DejaVuSans-69" x="459.863281"/>
      <use xlink:href="#DejaVuSans-74" x="487.646484"/>
      <use xlink:href="#DejaVuSans-79" x="526.855469"/>
      <use xlink:href="#DejaVuSans-20" x="586.035156"/>
     </g>
     <!-- measurements -->
     <g transform="translate(282.05975 270.628375) scale(0.1 -0.1)">
      <use xlink:href="#DejaVuSans-6d"/>
      <use xlink:href="#DejaVuSans-65" x="97.412109"/>
      <use xlink:href="#DejaVuSans-61" x="158.935547"/>
      <use xlink:href="#DejaVuSans-73" x="220.214844"/>
      <use xlink:href="#DejaVuSans-75" x="272.314453"/>
      <use xlink:href="#DejaVuSans-72" x="335.693359"/>
      <use xlink:href="#DejaVuSans-65" x="374.556641"/>
      <use xlink:href="#DejaVuSans-6d" x="436.080078"/>
      <use xlink:href="#DejaVuSans-65" x="533.492188"/>
      <use xlink:href="#DejaVuSans-6e" x="595.015625"/>
      <use xlink:href="#DejaVuSans-74" x="658.394531"/>
      <use xlink:href="#DejaVuSans-73" x="697.603516"/>
     </g>
    </g>
    <g id="patch_6">
     <path d="M 254.05975 291.94525 
L 274.05975 291.94525 
L 274.05975 284.94525 
L 254.05975 284.94525 
z
" style="fill: #ff7f0e"/>
    </g>
    <g id="text_5">
     <!-- without quality  -->
     <g transform="translate(282.05975 285.3065) scale(0.1 -0.1)">
      <use xlink:href="#DejaVuSans-77"/>
      <use xlink:href="#DejaVuSans-69" x="81.787109"/>
      <use xlink:href="#DejaVuSans-74" x="109.570312"/>
      <use xlink:href="#DejaVuSans-68" x="148.779297"/>
      <use xlink:href="#DejaVuSans-6f" x="212.158203"/>
      <use xlink:href="#DejaVuSans-75" x="273.339844"/>
      <use xlink:href="#DejaVuSans-74" x="336.71875"/>
      <use xlink:href="#DejaVuSans-20" x="375.927734"/>
      <use xlink:href="#DejaVuSans-71" x="407.714844"/>
      <use xlink:href="#DejaVuSans-75" x="471.191406"/>
      <use xlink:href="#DejaVuSans-61" x="534.570312"/>
      <use xlink:href="#DejaVuSans-6c" x="595.849609"/>
      <use xlink:href="#DejaVuSans-69" x="623.632812"/>
      <use xlink:href="#DejaVuSans-74" x="651.416016"/>
      <use xlink:href="#DejaVuSans-79" x="690.625"/>
      <use xlink:href="#DejaVuSans-20" x="749.804688"/>
     </g>
     <!-- measurements -->
     <g transform="translate(282.05975 296.504312) scale(0.1 -0.1)">
      <use xlink:href="#DejaVuSans-6d"/>
      <use xlink:href="#DejaVuSans-65" x="97.412109"/>
      <use xlink:href="#DejaVuSans-61" x="158.935547"/>
      <use xlink:href="#DejaVuSans-73" x="220.214844"/>
      <use xlink:href="#DejaVuSans-75" x="272.314453"/>
      <use xlink:href="#DejaVuSans-72" x="335.693359"/>
      <use xlink:href="#DejaVuSans-65" x="374.556641"/>
      <use xlink:href="#DejaVuSans-6d" x="436.080078"/>
      <use xlink:href="#DejaVuSans-65" x="533.492188"/>
      <use xlink:href="#DejaVuSans-6e" x="595.015625"/>
      <use xlink:href="#DejaVuSans-74" x="658.394531"/>
      <use xlink:href="#DejaVuSans-73" x="697.603516"/>
     </g>
    </g>
   </g>
  </g>
 </g>
</svg>
