<?xml version="1.0" encoding="us-ascii" standalone="no"?><svg xmlns="http://www.w3.org/2000/svg" xmlns:xlink="http://www.w3.org/1999/xlink" contentStyleType="text/css" height="558px" preserveAspectRatio="none" style="width:2024px;height:558px;background:#FFFFFF;" version="1.1" viewBox="0 0 2024 558" width="2024px" zoomAndPan="magnify"><defs/><g><!--class dataset--><g id="elem_dataset"><rect codeLine="6" fill="#F1F1F1" height="154.4075" id="dataset" rx="2.5" ry="2.5" style="stroke:#181818;stroke-width:0.5;" width="246" x="1007" y="183.2"/><ellipse cx="1083.75" cy="199.2" fill="#ADD1B2" rx="11" ry="11" style="stroke:#181818;stroke-width:1.0;"/><path d="M1083.8594,194.7313 Q1082.9375,194.7313 1082.2031,195.0438 Q1081.4844,195.3563 1080.9844,195.95 Q1080.4844,196.5281 1080.2031,197.4031 Q1079.9375,198.2781 1079.9375,199.3719 Q1079.9375,200.8094 1080.375,201.8563 Q1080.8281,202.9031 1081.6719,203.45 Q1082.5313,203.9969 1083.8438,203.9969 Q1084.625,203.9969 1085.3125,203.8719 Q1086.0156,203.7313 1087.0156,203.4188 L1087.0156,205.2938 Q1086.1563,205.6219 1085.3906,205.7469 Q1084.6406,205.8719 1083.625,205.8719 Q1081.7031,205.8719 1080.3906,205.075 Q1079.0938,204.2625 1078.4375,202.7938 Q1077.7813,201.3094 1077.7813,199.3406 Q1077.7813,197.9188 1078.1719,196.7469 Q1078.5781,195.5594 1079.3594,194.6844 Q1080.1406,193.8094 1081.2813,193.3406 Q1082.4219,192.8563 1083.8906,192.8563 Q1084.8438,192.8563 1085.7344,193.0594 Q1086.6406,193.2469 1087.5781,193.7156 L1086.75,195.4969 Q1085.9688,195.1219 1085.3125,194.9344 Q1084.6563,194.7313 1083.8594,194.7313 Z " fill="#000000"/><text fill="#000000" font-family="sans-serif" font-size="14" lengthAdjust="spacing" textLength="84" x="1104.25" y="204.632">dcat:Dataset</text><line style="stroke:#181818;stroke-width:0.5;" x1="1008" x2="1252" y1="215.2" y2="215.2"/><text fill="#000000" font-family="sans-serif" font-size="14" lengthAdjust="spacing" textLength="220" x="1013" y="234.1659">dcterms:identifier xsd:string 1..1</text><text fill="#000000" font-family="sans-serif" font-size="14" lengthAdjust="spacing" textLength="234" x="1013" y="253.2339">dcterms:description xsd:string 1..1</text><text fill="#000000" font-family="sans-serif" font-size="14" lengthAdjust="spacing" textLength="131" x="1013" y="272.3018">dcat:version xsd:str</text><text fill="#000000" font-family="sans-serif" font-size="14" lengthAdjust="spacing" textLength="175" x="1013" y="291.3697">dcterms:temporal xsd:any</text><text fill="#000000" font-family="sans-serif" font-size="14" lengthAdjust="spacing" textLength="159" x="1013" y="310.4376">dcterms:spatial xsd:any</text><text fill="#000000" font-family="sans-serif" font-size="14" lengthAdjust="spacing" textLength="180" x="1013" y="329.5055">dcterms:modified xsd:date</text></g><!--class series--><g id="elem_series"><rect codeLine="15" fill="#F1F1F1" height="32" id="series" rx="2.5" ry="2.5" style="stroke:#181818;stroke-width:0.5;" width="157" x="1188.5" y="468.28"/><ellipse cx="1203.5" cy="484.28" fill="#ADD1B2" rx="11" ry="11" style="stroke:#181818;stroke-width:1.0;"/><path d="M1203.6094,479.8113 Q1202.6875,479.8113 1201.9531,480.1238 Q1201.2344,480.4363 1200.7344,481.03 Q1200.2344,481.6081 1199.9531,482.4831 Q1199.6875,483.3581 1199.6875,484.4519 Q1199.6875,485.8894 1200.125,486.9363 Q1200.5781,487.9831 1201.4219,488.53 Q1202.2813,489.0769 1203.5938,489.0769 Q1204.375,489.0769 1205.0625,488.9519 Q1205.7656,488.8113 1206.7656,488.4988 L1206.7656,490.3738 Q1205.9063,490.7019 1205.1406,490.8269 Q1204.3906,490.9519 1203.375,490.9519 Q1201.4531,490.9519 1200.1406,490.155 Q1198.8438,489.3425 1198.1875,487.8738 Q1197.5313,486.3894 1197.5313,484.4206 Q1197.5313,482.9988 1197.9219,481.8269 Q1198.3281,480.6394 1199.1094,479.7644 Q1199.8906,478.8894 1201.0313,478.4206 Q1202.1719,477.9363 1203.6406,477.9363 Q1204.5938,477.9363 1205.4844,478.1394 Q1206.3906,478.3269 1207.3281,478.7956 L1206.5,480.5769 Q1205.7188,480.2019 1205.0625,480.0144 Q1204.4063,479.8113 1203.6094,479.8113 Z " fill="#000000"/><text fill="#000000" font-family="sans-serif" font-size="14" lengthAdjust="spacing" textLength="125" x="1217.5" y="489.712">dcat:DatasetSeries</text></g><!--class catalog--><g id="elem_catalog"><rect codeLine="17" fill="#F1F1F1" height="97.2038" id="catalog" rx="2.5" ry="2.5" style="stroke:#181818;stroke-width:0.5;" width="232" x="1014" y="7"/><ellipse cx="1083.75" cy="23" fill="#ADD1B2" rx="11" ry="11" style="stroke:#181818;stroke-width:1.0;"/><path d="M1083.8594,18.5313 Q1082.9375,18.5313 1082.2031,18.8438 Q1081.4844,19.1563 1080.9844,19.75 Q1080.4844,20.3281 1080.2031,21.2031 Q1079.9375,22.0781 1079.9375,23.1719 Q1079.9375,24.6094 1080.375,25.6563 Q1080.8281,26.7031 1081.6719,27.25 Q1082.5313,27.7969 1083.8438,27.7969 Q1084.625,27.7969 1085.3125,27.6719 Q1086.0156,27.5313 1087.0156,27.2188 L1087.0156,29.0938 Q1086.1563,29.4219 1085.3906,29.5469 Q1084.6406,29.6719 1083.625,29.6719 Q1081.7031,29.6719 1080.3906,28.875 Q1079.0938,28.0625 1078.4375,26.5938 Q1077.7813,25.1094 1077.7813,23.1406 Q1077.7813,21.7188 1078.1719,20.5469 Q1078.5781,19.3594 1079.3594,18.4844 Q1080.1406,17.6094 1081.2813,17.1406 Q1082.4219,16.6563 1083.8906,16.6563 Q1084.8438,16.6563 1085.7344,16.8594 Q1086.6406,17.0469 1087.5781,17.5156 L1086.75,19.2969 Q1085.9688,18.9219 1085.3125,18.7344 Q1084.6563,18.5313 1083.8594,18.5313 Z " fill="#000000"/><text fill="#000000" font-family="sans-serif" font-size="14" lengthAdjust="spacing" textLength="84" x="1104.25" y="28.432">dcat:Catalog</text><line style="stroke:#181818;stroke-width:0.5;" x1="1015" x2="1245" y1="39" y2="39"/><text fill="#000000" font-family="sans-serif" font-size="14" lengthAdjust="spacing" textLength="184" x="1020" y="57.9659">dcterms:title xsd:string 1..1</text><text fill="#000000" font-family="sans-serif" font-size="14" lengthAdjust="spacing" textLength="220" x="1020" y="77.0339">dcterms:identifier xsd:string 1..1</text><text fill="#000000" font-family="sans-serif" font-size="14" lengthAdjust="spacing" textLength="206" x="1020" y="96.1018">dcterms:description xsd:string</text></g><!--class agent--><g id="elem_agent"><rect codeLine="23" fill="#FFFFFF" height="72.4799" id="agent" rx="2.5" ry="2.5" style="stroke:#181818;stroke-width:0.5;" width="151" x="1584.5" y="448.04"/><ellipse cx="1610.3" cy="470.746" fill="#ADD1B2" rx="11" ry="11" style="stroke:#181818;stroke-width:1.0;"/><path d="M1610.4094,466.2773 Q1609.4875,466.2773 1608.7531,466.5898 Q1608.0344,466.9023 1607.5344,467.496 Q1607.0344,468.0741 1606.7531,468.9491 Q1606.4875,469.8241 1606.4875,470.9179 Q1606.4875,472.3554 1606.925,473.4023 Q1607.3781,474.4491 1608.2219,474.996 Q1609.0813,475.5429 1610.3938,475.5429 Q1611.175,475.5429 1611.8625,475.4179 Q1612.5656,475.2773 1613.5656,474.9648 L1613.5656,476.8398 Q1612.7063,477.1679 1611.9406,477.2929 Q1611.1906,477.4179 1610.175,477.4179 Q1608.2531,477.4179 1606.9406,476.621 Q1605.6438,475.8085 1604.9875,474.3398 Q1604.3313,472.8554 1604.3313,470.8866 Q1604.3313,469.4648 1604.7219,468.2929 Q1605.1281,467.1054 1605.9094,466.2304 Q1606.6906,465.3554 1607.8313,464.8866 Q1608.9719,464.4023 1610.4406,464.4023 Q1611.3938,464.4023 1612.2844,464.6054 Q1613.1906,464.7929 1614.1281,465.2616 L1613.3,467.0429 Q1612.5188,466.6679 1611.8625,466.4804 Q1611.2063,466.2773 1610.4094,466.2773 Z " fill="#000000"/><text fill="#000000" font-family="sans-serif" font-size="12" font-style="italic" lengthAdjust="spacing" textLength="99" x="1624.7" y="465.8681">&#171;BlankNodeOrIRI&#187;</text><text fill="#000000" font-family="sans-serif" font-size="14" lengthAdjust="spacing" textLength="70" x="1639.2" y="484.35">foaf:Agent</text><line style="stroke:#181818;stroke-width:0.5;" x1="1585.5" x2="1734.5" y1="493.452" y2="493.452"/><text fill="#000000" font-family="sans-serif" font-size="14" lengthAdjust="spacing" textLength="139" x="1590.5" y="512.418">foaf:name xsd:string</text></g><!--class license--><g id="elem_license"><rect codeLine="28" fill="#FFFFFF" height="72.4799" id="license" rx="2.5" ry="2.5" style="stroke:#181818;stroke-width:0.5;" width="168" x="7" y="448.04"/><ellipse cx="34.15" cy="470.746" fill="#ADD1B2" rx="11" ry="11" style="stroke:#181818;stroke-width:1.0;"/><path d="M34.2594,466.2773 Q33.3375,466.2773 32.6031,466.5898 Q31.8844,466.9023 31.3844,467.496 Q30.8844,468.0741 30.6031,468.9491 Q30.3375,469.8241 30.3375,470.9179 Q30.3375,472.3554 30.775,473.4023 Q31.2281,474.4491 32.0719,474.996 Q32.9313,475.5429 34.2438,475.5429 Q35.025,475.5429 35.7125,475.4179 Q36.4156,475.2773 37.4156,474.9648 L37.4156,476.8398 Q36.5563,477.1679 35.7906,477.2929 Q35.0406,477.4179 34.025,477.4179 Q32.1031,477.4179 30.7906,476.621 Q29.4938,475.8085 28.8375,474.3398 Q28.1813,472.8554 28.1813,470.8866 Q28.1813,469.4648 28.5719,468.2929 Q28.9781,467.1054 29.7594,466.2304 Q30.5406,465.3554 31.6813,464.8866 Q32.8219,464.4023 34.2906,464.4023 Q35.2438,464.4023 36.1344,464.6054 Q37.0406,464.7929 37.9781,465.2616 L37.15,467.0429 Q36.3688,466.6679 35.7125,466.4804 Q35.0563,466.2773 34.2594,466.2773 Z " fill="#000000"/><text fill="#000000" font-family="sans-serif" font-size="12" font-style="italic" lengthAdjust="spacing" textLength="99" x="55.85" y="465.8681">&#171;BlankNodeOrIRI&#187;</text><text fill="#000000" font-family="sans-serif" font-size="14" lengthAdjust="spacing" textLength="109" x="50.85" y="484.35">dcterms:License</text><line style="stroke:#181818;stroke-width:0.5;" x1="8" x2="174" y1="493.452" y2="493.452"/><text fill="#000000" font-family="sans-serif" font-size="14" lengthAdjust="spacing" textLength="156" x="13" y="512.418">dcterms:title xsd:string</text></g><!--class kind--><g id="elem_kind"><rect codeLine="32" fill="#FFFFFF" height="72.4799" id="kind" rx="2.5" ry="2.5" style="stroke:#181818;stroke-width:0.5;" width="169" x="1380.5" y="448.04"/><ellipse cx="1414.4" cy="470.746" fill="#ADD1B2" rx="11" ry="11" style="stroke:#181818;stroke-width:1.0;"/><path d="M1414.5094,466.2773 Q1413.5875,466.2773 1412.8531,466.5898 Q1412.1344,466.9023 1411.6344,467.496 Q1411.1344,468.0741 1410.8531,468.9491 Q1410.5875,469.8241 1410.5875,470.9179 Q1410.5875,472.3554 1411.025,473.4023 Q1411.4781,474.4491 1412.3219,474.996 Q1413.1813,475.5429 1414.4938,475.5429 Q1415.275,475.5429 1415.9625,475.4179 Q1416.6656,475.2773 1417.6656,474.9648 L1417.6656,476.8398 Q1416.8063,477.1679 1416.0406,477.2929 Q1415.2906,477.4179 1414.275,477.4179 Q1412.3531,477.4179 1411.0406,476.621 Q1409.7438,475.8085 1409.0875,474.3398 Q1408.4313,472.8554 1408.4313,470.8866 Q1408.4313,469.4648 1408.8219,468.2929 Q1409.2281,467.1054 1410.0094,466.2304 Q1410.7906,465.3554 1411.9313,464.8866 Q1413.0719,464.4023 1414.5406,464.4023 Q1415.4938,464.4023 1416.3844,464.6054 Q1417.2906,464.7929 1418.2281,465.2616 L1417.4,467.0429 Q1416.6188,466.6679 1415.9625,466.4804 Q1415.3063,466.2773 1414.5094,466.2773 Z " fill="#000000"/><text fill="#000000" font-family="sans-serif" font-size="12" font-style="italic" lengthAdjust="spacing" textLength="99" x="1430.6" y="465.8681">&#171;BlankNodeOrIRI&#187;</text><text fill="#000000" font-family="sans-serif" font-size="14" lengthAdjust="spacing" textLength="72" x="1444.1" y="484.35">vcard:Kind</text><line style="stroke:#181818;stroke-width:0.5;" x1="1381.5" x2="1548.5" y1="493.452" y2="493.452"/><text fill="#000000" font-family="sans-serif" font-size="14" lengthAdjust="spacing" textLength="157" x="1386.5" y="512.418">vcard:hasEmail xsd:any</text></g><!--class location--><g id="elem_location"><rect codeLine="36" fill="#FFFFFF" height="72.4799" id="location" rx="2.5" ry="2.5" style="stroke:#181818;stroke-width:0.5;" width="180" x="210" y="448.04"/><ellipse cx="239.85" cy="470.746" fill="#ADD1B2" rx="11" ry="11" style="stroke:#181818;stroke-width:1.0;"/><path d="M239.9594,466.2773 Q239.0375,466.2773 238.3031,466.5898 Q237.5844,466.9023 237.0844,467.496 Q236.5844,468.0741 236.3031,468.9491 Q236.0375,469.8241 236.0375,470.9179 Q236.0375,472.3554 236.475,473.4023 Q236.9281,474.4491 237.7719,474.996 Q238.6313,475.5429 239.9438,475.5429 Q240.725,475.5429 241.4125,475.4179 Q242.1156,475.2773 243.1156,474.9648 L243.1156,476.8398 Q242.2563,477.1679 241.4906,477.2929 Q240.7406,477.4179 239.725,477.4179 Q237.8031,477.4179 236.4906,476.621 Q235.1938,475.8085 234.5375,474.3398 Q233.8813,472.8554 233.8813,470.8866 Q233.8813,469.4648 234.2719,468.2929 Q234.6781,467.1054 235.4594,466.2304 Q236.2406,465.3554 237.3813,464.8866 Q238.5219,464.4023 239.9906,464.4023 Q240.9438,464.4023 241.8344,464.6054 Q242.7406,464.7929 243.6781,465.2616 L242.85,467.0429 Q242.0688,466.6679 241.4125,466.4804 Q240.7563,466.2773 239.9594,466.2773 Z " fill="#000000"/><text fill="#000000" font-family="sans-serif" font-size="12" font-style="italic" lengthAdjust="spacing" textLength="99" x="265.15" y="465.8681">&#171;BlankNodeOrIRI&#187;</text><text fill="#000000" font-family="sans-serif" font-size="14" lengthAdjust="spacing" textLength="115" x="257.15" y="484.35">dcterms:Location</text><line style="stroke:#181818;stroke-width:0.5;" x1="211" x2="389" y1="493.452" y2="493.452"/><text fill="#000000" font-family="sans-serif" font-size="14" lengthAdjust="spacing" textLength="168" x="216" y="512.418">skos:prefLabel xsd:string</text></g><!--class distribution--><g id="elem_distribution"><rect codeLine="40" fill="#F1F1F1" height="135.3396" id="distribution" rx="2.5" ry="2.5" style="stroke:#181818;stroke-width:0.5;" width="233" x="424.5" y="416.61"/><ellipse cx="480.25" cy="432.61" fill="#ADD1B2" rx="11" ry="11" style="stroke:#181818;stroke-width:1.0;"/><path d="M480.3594,428.1413 Q479.4375,428.1413 478.7031,428.4538 Q477.9844,428.7663 477.4844,429.36 Q476.9844,429.9381 476.7031,430.8131 Q476.4375,431.6881 476.4375,432.7819 Q476.4375,434.2194 476.875,435.2663 Q477.3281,436.3131 478.1719,436.86 Q479.0313,437.4069 480.3438,437.4069 Q481.125,437.4069 481.8125,437.2819 Q482.5156,437.1413 483.5156,436.8288 L483.5156,438.7038 Q482.6563,439.0319 481.8906,439.1569 Q481.1406,439.2819 480.125,439.2819 Q478.2031,439.2819 476.8906,438.485 Q475.5938,437.6725 474.9375,436.2038 Q474.2813,434.7194 474.2813,432.7506 Q474.2813,431.3288 474.6719,430.1569 Q475.0781,428.9694 475.8594,428.0944 Q476.6406,427.2194 477.7813,426.7506 Q478.9219,426.2663 480.3906,426.2663 Q481.3438,426.2663 482.2344,426.4694 Q483.1406,426.6569 484.0781,427.1256 L483.25,428.9069 Q482.4688,428.5319 481.8125,428.3444 Q481.1563,428.1413 480.3594,428.1413 Z " fill="#000000"/><text fill="#000000" font-family="sans-serif" font-size="14" lengthAdjust="spacing" textLength="113" x="500.75" y="438.042">dcat:Distribution</text><line style="stroke:#181818;stroke-width:0.5;" x1="425.5" x2="656.5" y1="448.61" y2="448.61"/><text fill="#000000" font-family="sans-serif" font-size="14" lengthAdjust="spacing" textLength="220" x="430.5" y="467.5759">dcterms:identifier xsd:string 1..1</text><text fill="#000000" font-family="sans-serif" font-size="14" lengthAdjust="spacing" textLength="221" x="430.5" y="486.6439">dcat:accessURL rdf:Resource 1..1</text><text fill="#000000" font-family="sans-serif" font-size="14" lengthAdjust="spacing" textLength="159" x="430.5" y="505.7118">dcterms:format xsd:any</text><text fill="#000000" font-family="sans-serif" font-size="14" lengthAdjust="spacing" textLength="153" x="430.5" y="524.7797">dcat:version xsd:string</text><text fill="#000000" font-family="sans-serif" font-size="14" lengthAdjust="spacing" textLength="180" x="430.5" y="543.8476">dcterms:modified xsd:date</text></g><!--class concept--><g id="elem_concept"><rect codeLine="49" fill="#F1F1F1" height="135.3396" id="concept" rx="2.5" ry="2.5" style="stroke:#181818;stroke-width:0.5;" width="232" x="692" y="416.61"/><ellipse cx="759.75" cy="432.61" fill="#ADD1B2" rx="11" ry="11" style="stroke:#181818;stroke-width:1.0;"/><path d="M759.8594,428.1413 Q758.9375,428.1413 758.2031,428.4538 Q757.4844,428.7663 756.9844,429.36 Q756.4844,429.9381 756.2031,430.8131 Q755.9375,431.6881 755.9375,432.7819 Q755.9375,434.2194 756.375,435.2663 Q756.8281,436.3131 757.6719,436.86 Q758.5313,437.4069 759.8438,437.4069 Q760.625,437.4069 761.3125,437.2819 Q762.0156,437.1413 763.0156,436.8288 L763.0156,438.7038 Q762.1563,439.0319 761.3906,439.1569 Q760.6406,439.2819 759.625,439.2819 Q757.7031,439.2819 756.3906,438.485 Q755.0938,437.6725 754.4375,436.2038 Q753.7813,434.7194 753.7813,432.7506 Q753.7813,431.3288 754.1719,430.1569 Q754.5781,428.9694 755.3594,428.0944 Q756.1406,427.2194 757.2813,426.7506 Q758.4219,426.2663 759.8906,426.2663 Q760.8438,426.2663 761.7344,426.4694 Q762.6406,426.6569 763.5781,427.1256 L762.75,428.9069 Q761.9688,428.5319 761.3125,428.3444 Q760.6563,428.1413 759.8594,428.1413 Z " fill="#000000"/><text fill="#000000" font-family="sans-serif" font-size="14" lengthAdjust="spacing" textLength="88" x="780.25" y="438.042">skos:Concept</text><line style="stroke:#181818;stroke-width:0.5;" x1="693" x2="923" y1="448.61" y2="448.61"/><text fill="#000000" font-family="sans-serif" font-size="14" lengthAdjust="spacing" textLength="220" x="698" y="467.5759">dcterms:identifier xsd:string 1..1</text><text fill="#000000" font-family="sans-serif" font-size="14" lengthAdjust="spacing" textLength="196" x="698" y="486.6439">skos:prefLabel xsd:string 1..1</text><text fill="#000000" font-family="sans-serif" font-size="14" lengthAdjust="spacing" textLength="169" x="698" y="505.7118">skos:definition xsd:string</text><text fill="#000000" font-family="sans-serif" font-size="14" lengthAdjust="spacing" textLength="161" x="698" y="524.7797">skos:example xsd:string</text><text fill="#000000" font-family="sans-serif" font-size="14" lengthAdjust="spacing" textLength="157" x="698" y="543.8476">skos:altLabel xsd:string</text></g><!--class metric--><g id="elem_metric"><rect codeLine="58" fill="#F1F1F1" height="135.3396" id="metric" rx="2.5" ry="2.5" style="stroke:#181818;stroke-width:0.5;" width="255" x="1762.5" y="192.74"/><ellipse cx="1849.75" cy="208.74" fill="#ADD1B2" rx="11" ry="11" style="stroke:#181818;stroke-width:1.0;"/><path d="M1849.8594,204.2713 Q1848.9375,204.2713 1848.2031,204.5838 Q1847.4844,204.8963 1846.9844,205.49 Q1846.4844,206.0681 1846.2031,206.9431 Q1845.9375,207.8181 1845.9375,208.9119 Q1845.9375,210.3494 1846.375,211.3963 Q1846.8281,212.4431 1847.6719,212.99 Q1848.5313,213.5369 1849.8438,213.5369 Q1850.625,213.5369 1851.3125,213.4119 Q1852.0156,213.2713 1853.0156,212.9588 L1853.0156,214.8338 Q1852.1563,215.1619 1851.3906,215.2869 Q1850.6406,215.4119 1849.625,215.4119 Q1847.7031,215.4119 1846.3906,214.615 Q1845.0938,213.8025 1844.4375,212.3338 Q1843.7813,210.8494 1843.7813,208.8806 Q1843.7813,207.4588 1844.1719,206.2869 Q1844.5781,205.0994 1845.3594,204.2244 Q1846.1406,203.3494 1847.2813,202.8806 Q1848.4219,202.3963 1849.8906,202.3963 Q1850.8438,202.3963 1851.7344,202.5994 Q1852.6406,202.7869 1853.5781,203.2556 L1852.75,205.0369 Q1851.9688,204.6619 1851.3125,204.4744 Q1850.6563,204.2713 1849.8594,204.2713 Z " fill="#000000"/><text fill="#000000" font-family="sans-serif" font-size="14" lengthAdjust="spacing" textLength="72" x="1870.25" y="214.172">dqv:Metric</text><line style="stroke:#181818;stroke-width:0.5;" x1="1763.5" x2="2016.5" y1="224.74" y2="224.74"/><text fill="#000000" font-family="sans-serif" font-size="14" lengthAdjust="spacing" textLength="220" x="1768.5" y="243.7059">dcterms:identifier xsd:string 1..1</text><text fill="#000000" font-family="sans-serif" font-size="14" lengthAdjust="spacing" textLength="196" x="1768.5" y="262.7739">skos:prefLabel xsd:string 1..1</text><text fill="#000000" font-family="sans-serif" font-size="14" lengthAdjust="spacing" textLength="169" x="1768.5" y="281.8418">skos:definition xsd:string</text><text fill="#000000" font-family="sans-serif" font-size="14" lengthAdjust="spacing" textLength="243" x="1768.5" y="300.9097">dqv:expectedDataType rdf:Resource</text><text fill="#000000" font-family="sans-serif" font-size="14" lengthAdjust="spacing" textLength="204" x="1768.5" y="319.9776">dqv:inDimension rdf:Resource</text></g><!--class periodoftime--><g id="elem_periodoftime"><rect codeLine="66" fill="#FFFFFF" height="91.5479" id="periodoftime" rx="2.5" ry="2.5" style="stroke:#181818;stroke-width:0.5;" width="195" x="958.5" y="438.51"/><ellipse cx="978.9" cy="461.216" fill="#ADD1B2" rx="11" ry="11" style="stroke:#181818;stroke-width:1.0;"/><path d="M979.0094,456.7473 Q978.0875,456.7473 977.3531,457.0598 Q976.6344,457.3723 976.1344,457.966 Q975.6344,458.5441 975.3531,459.4191 Q975.0875,460.2941 975.0875,461.3879 Q975.0875,462.8254 975.525,463.8723 Q975.9781,464.9191 976.8219,465.466 Q977.6813,466.0129 978.9938,466.0129 Q979.775,466.0129 980.4625,465.8879 Q981.1656,465.7473 982.1656,465.4348 L982.1656,467.3098 Q981.3063,467.6379 980.5406,467.7629 Q979.7906,467.8879 978.775,467.8879 Q976.8531,467.8879 975.5406,467.091 Q974.2438,466.2785 973.5875,464.8098 Q972.9313,463.3254 972.9313,461.3566 Q972.9313,459.9348 973.3219,458.7629 Q973.7281,457.5754 974.5094,456.7004 Q975.2906,455.8254 976.4313,455.3566 Q977.5719,454.8723 979.0406,454.8723 Q979.9938,454.8723 980.8844,455.0754 Q981.7906,455.2629 982.7281,455.7316 L981.9,457.5129 Q981.1188,457.1379 980.4625,456.9504 Q979.8063,456.7473 979.0094,456.7473 Z " fill="#000000"/><text fill="#000000" font-family="sans-serif" font-size="12" font-style="italic" lengthAdjust="spacing" textLength="99" x="1020.1" y="456.3381">&#171;BlankNodeOrIRI&#187;</text><text fill="#000000" font-family="sans-serif" font-size="14" lengthAdjust="spacing" textLength="151" x="994.1" y="474.82">dcterms:PeriodOfTime</text><line style="stroke:#181818;stroke-width:0.5;" x1="959.5" x2="1152.5" y1="483.922" y2="483.922"/><text fill="#000000" font-family="sans-serif" font-size="14" lengthAdjust="spacing" textLength="183" x="964.5" y="502.888">time:hasBeginning xsd:any</text><text fill="#000000" font-family="sans-serif" font-size="14" lengthAdjust="spacing" textLength="139" x="964.5" y="521.9559">time:hasEnd xsd:any</text></g><!--class qualitymeasurement--><g id="elem_qualitymeasurement"><rect codeLine="71" fill="#F1F1F1" height="97.2038" id="qualitymeasurement" rx="2.5" ry="2.5" style="stroke:#181818;stroke-width:0.5;" width="257" x="1676.5" y="7"/><ellipse cx="1715.8" cy="23" fill="#ADD1B2" rx="11" ry="11" style="stroke:#181818;stroke-width:1.0;"/><path d="M1715.9094,18.5313 Q1714.9875,18.5313 1714.2531,18.8438 Q1713.5344,19.1563 1713.0344,19.75 Q1712.5344,20.3281 1712.2531,21.2031 Q1711.9875,22.0781 1711.9875,23.1719 Q1711.9875,24.6094 1712.425,25.6563 Q1712.8781,26.7031 1713.7219,27.25 Q1714.5813,27.7969 1715.8938,27.7969 Q1716.675,27.7969 1717.3625,27.6719 Q1718.0656,27.5313 1719.0656,27.2188 L1719.0656,29.0938 Q1718.2063,29.4219 1717.4406,29.5469 Q1716.6906,29.6719 1715.675,29.6719 Q1713.7531,29.6719 1712.4406,28.875 Q1711.1438,28.0625 1710.4875,26.5938 Q1709.8313,25.1094 1709.8313,23.1406 Q1709.8313,21.7188 1710.2219,20.5469 Q1710.6281,19.3594 1711.4094,18.4844 Q1712.1906,17.6094 1713.3313,17.1406 Q1714.4719,16.6563 1715.9406,16.6563 Q1716.8938,16.6563 1717.7844,16.8594 Q1718.6906,17.0469 1719.6281,17.5156 L1718.8,19.2969 Q1718.0188,18.9219 1717.3625,18.7344 Q1716.7063,18.5313 1715.9094,18.5313 Z " fill="#000000"/><text fill="#000000" font-family="sans-serif" font-size="14" lengthAdjust="spacing" textLength="171" x="1735.2" y="28.432">dqv:QualityMeasurement</text><line style="stroke:#181818;stroke-width:0.5;" x1="1677.5" x2="1932.5" y1="39" y2="39"/><text fill="#000000" font-family="sans-serif" font-size="14" lengthAdjust="spacing" textLength="220" x="1682.5" y="57.9659">dcterms:identifier xsd:string 1..1</text><text fill="#000000" font-family="sans-serif" font-size="14" lengthAdjust="spacing" textLength="120" x="1682.5" y="77.0339">dqv:value xsd:any</text><text fill="#000000" font-family="sans-serif" font-size="14" lengthAdjust="spacing" textLength="245" x="1682.5" y="96.1018">prov:generatedAtTime xsd:dateTime</text></g><!--link dataset to distribution--><g id="link_dataset_distribution"><path codeLine="78" d="M1006.69,298.57 C914.22,327.62 785.15,370.66 675,416.61 C669.36,418.96 669.1093,418.9952 663.3493,421.5652 " fill="none" id="dataset-to-distribution" style="stroke:#181818;stroke-width:1.0;"/><polygon fill="#181818" points="657.87,424.01,667.7188,423.9957,662.4361,421.9727,664.4592,416.69,657.87,424.01" style="stroke:#181818;stroke-width:1.0;"/><text fill="#000000" font-family="sans-serif" font-size="13" lengthAdjust="spacing" textLength="99" x="799.04" y="382.507">dcat:distribution</text></g><!--link dataset to dataset--><g id="link_dataset_dataset"><path codeLine="79" d="M1253.22,240.07 C1273.8,242.91 1288,249.69 1288,260.41 C1288,271.12 1279.7437,277.0798 1259.1637,279.9198 " fill="none" id="dataset-to-dataset" style="stroke:#181818;stroke-width:1.0;"/><polygon fill="#181818" points="1253.22,280.74,1262.6823,283.4721,1258.1731,280.0565,1261.5887,275.5472,1253.22,280.74" style="stroke:#181818;stroke-width:1.0;"/><text fill="#000000" font-family="sans-serif" font-size="13" lengthAdjust="spacing" textLength="132" x="1294" y="265.807">prov:wasDerivedFrom</text></g><!--link dataset to concept--><g id="link_dataset_concept"><path codeLine="80" d="M1014.67,337.88 C999.93,347.82 985.08,357.91 971,367.61 C948.42,383.16 929.1561,396.6518 906.5261,412.6818 " fill="none" id="dataset-to-concept" style="stroke:#181818;stroke-width:1.0;"/><polygon fill="#181818" points="901.63,416.15,911.2863,414.2118,905.7101,413.2599,906.662,407.6837,901.63,416.15" style="stroke:#181818;stroke-width:1.0;"/><text fill="#000000" font-family="sans-serif" font-size="13" lengthAdjust="spacing" textLength="68" x="972" y="382.507">dcat:theme</text></g><!--link dataset to agent--><g id="link_dataset_agent"><path codeLine="81" d="M1253.15,292.66 C1343.52,318.51 1467.36,360.15 1567,416.61 C1583.07,425.72 1594.8847,433.4849 1609.5947,444.1649 " fill="none" id="dataset-to-agent" style="stroke:#181818;stroke-width:1.0;"/><polygon fill="#181818" points="1614.45,447.69,1609.5172,439.1655,1610.4039,444.7524,1604.817,445.6392,1614.45,447.69" style="stroke:#181818;stroke-width:1.0;"/><text fill="#000000" font-family="sans-serif" font-size="13" lengthAdjust="spacing" textLength="85" x="1500.64" y="382.507">dcat:publisher</text></g><!--link dataset to kind--><g id="link_dataset_kind"><path codeLine="82" d="M1253.11,330.56 C1273.05,342.52 1293.28,355.13 1312,367.61 C1349.83,392.82 1386.0955,420.3187 1416.1255,443.9587 " fill="none" id="dataset-to-kind" style="stroke:#181818;stroke-width:1.0;"/><polygon fill="#181818" points="1420.84,447.67,1416.2425,438.9601,1416.9113,444.5773,1411.2941,445.246,1420.84,447.67" style="stroke:#181818;stroke-width:1.0;"/><text fill="#000000" font-family="sans-serif" font-size="13" lengthAdjust="spacing" textLength="106" x="1338.86" y="382.507">dcat:contactPoint</text></g><!--link dataset to license--><g id="link_dataset_license"><path codeLine="83" d="M1006.52,275.68 C860,293.43 608.65,326.48 395,367.61 C303.86,385.16 277.12,379.6 192,416.61 C173.21,424.78 159.0464,433.0186 142.5564,444.2686 " fill="none" id="dataset-to-license" style="stroke:#181818;stroke-width:1.0;"/><polygon fill="#181818" points="137.6,447.65,147.2889,445.8821,141.7303,444.8322,142.7803,439.2736,137.6,447.65" style="stroke:#181818;stroke-width:1.0;"/><text fill="#000000" font-family="sans-serif" font-size="13" lengthAdjust="spacing" textLength="96" x="396" y="382.507">dcterms:License</text></g><!--link dataset to periodoftime--><g id="link_dataset_periodoftime"><path codeLine="84" d="M1066.44,337.83 C1060.99,347.41 1056.3,357.43 1053,367.61 C1045.72,390.06 1045.1554,410.2995 1047.3254,432.0895 " fill="none" id="dataset-to-periodoftime" style="stroke:#181818;stroke-width:1.0;"/><polygon fill="#181818" points="1047.92,438.06,1051.0084,428.7079,1047.4245,433.0846,1043.0478,429.5007,1047.92,438.06" style="stroke:#181818;stroke-width:1.0;"/><text fill="#000000" font-family="sans-serif" font-size="13" lengthAdjust="spacing" textLength="107" x="1054" y="382.507">dcterms:temporal</text></g><!--link dataset to location--><g id="link_dataset_location"><path codeLine="85" d="M1006.59,274.73 C859.54,293.56 608.43,335.14 407,416.61 C387.12,424.65 371.8104,433.0551 354.2804,444.3751 " fill="none" id="dataset-to-location" style="stroke:#181818;stroke-width:1.0;"/><polygon fill="#181818" points="349.24,447.63,358.9705,446.108,353.4404,444.9176,354.6307,439.3874,349.24,447.63" style="stroke:#181818;stroke-width:1.0;"/><text fill="#000000" font-family="sans-serif" font-size="13" lengthAdjust="spacing" textLength="91" x="541.19" y="382.507">dcterms:spatial</text></g><!--reverse link dataset to series--><g id="link_dataset_series"><path codeLine="87" d="M1266.263,341.6043 C1278.153,352.8943 1275.51,353.29 1283,367.61 C1300.1,400.3 1284.8,444.97 1274.53,468.07 " fill="none" id="dataset-backto-series" style="stroke:#181818;stroke-width:1.0;"/><polygon fill="none" points="1253.21,329.21,1262.1316,345.9553,1270.3944,337.2533,1253.21,329.21" style="stroke:#181818;stroke-width:1.0;"/></g><!--link dataset to series--><g id="link_dataset_series"><path codeLine="89" d="M1169.71,338.07 C1178.65,354.31 1188.36,371.19 1198,386.61 C1216.58,416.33 1237.277,444.4349 1251.527,463.1649 " fill="none" id="dataset-to-series" style="stroke:#181818;stroke-width:1.0;"/><polygon fill="#181818" points="1255.16,467.94,1252.894,458.3554,1252.1325,463.9607,1246.5272,463.1993,1255.16,467.94" style="stroke:#181818;stroke-width:1.0;"/><text fill="#000000" font-family="sans-serif" font-size="13" lengthAdjust="spacing" textLength="75" x="1199" y="382.507">dcat:inSeries</text></g><!--link qualitymeasurement to dataset--><g id="link_qualitymeasurement_dataset"><path codeLine="91" d="M1676.05,95.34 C1554.36,131.91 1378.9362,184.6135 1259.1162,220.6135 " fill="none" id="qualitymeasurement-to-dataset" style="stroke:#181818;stroke-width:1.0;"/><polygon fill="#181818" points="1253.37,222.34,1263.1403,223.5811,1258.1585,220.9013,1260.8384,215.9195,1253.37,222.34" style="stroke:#181818;stroke-width:1.0;"/><text fill="#000000" font-family="sans-serif" font-size="13" lengthAdjust="spacing" textLength="106" x="1528.96" y="149.097">dqv:computedOn</text></g><!--link qualitymeasurement to metric--><g id="link_qualitymeasurement_metric"><path codeLine="92" d="M1825.14,104.66 C1836.14,130.9 1847.6112,158.2662 1859.6412,186.9762 " fill="none" id="qualitymeasurement-to-metric" style="stroke:#181818;stroke-width:1.0;"/><polygon fill="#181818" points="1861.96,192.51,1862.1711,182.6634,1860.0277,187.8985,1854.7926,185.7551,1861.96,192.51" style="stroke:#181818;stroke-width:1.0;"/><text fill="#000000" font-family="sans-serif" font-size="13" lengthAdjust="spacing" textLength="101" x="1845.95" y="149.097">dqv:inDimension</text></g><!--link catalog to license--><g id="link_catalog_license"><path codeLine="94" d="M1013.74,91.64 C846.91,143.54 531.52,247.73 276,367.61 C227.82,390.21 181.7486,419.4571 145.5186,444.2971 " fill="none" id="catalog-to-license" style="stroke:#181818;stroke-width:1.0;"/><polygon fill="#181818" points="140.57,447.69,150.2548,445.8998,144.6938,444.8626,145.731,439.3017,140.57,447.69" style="stroke:#181818;stroke-width:1.0;"/><text fill="#000000" font-family="sans-serif" font-size="13" lengthAdjust="spacing" textLength="96" x="735.59" y="265.807">dcterms:License</text></g><!--link catalog to agent--><g id="link_catalog_agent"><path codeLine="95" d="M1246.44,91.26 C1305.63,112.22 1376.74,142.79 1433,183.2 C1533.54,255.42 1606.8365,379.8347 1639.5765,442.3547 " fill="none" id="catalog-to-agent" style="stroke:#181818;stroke-width:1.0;"/><polygon fill="#181818" points="1642.36,447.67,1641.7283,437.8414,1640.0404,443.2406,1634.6413,441.5527,1642.36,447.67" style="stroke:#181818;stroke-width:1.0;"/><text fill="#000000" font-family="sans-serif" font-size="13" lengthAdjust="spacing" textLength="85" x="1575.64" y="265.807">dcat:publisher</text></g><!--link catalog to dataset--><g id="link_catalog_dataset"><path codeLine="96" d="M1130,104.66 C1130,127.97 1130,150.54 1130,176.75 " fill="none" id="catalog-to-dataset" style="stroke:#181818;stroke-width:1.0;"/><polygon fill="#181818" points="1130,182.75,1134,173.75,1130,177.75,1126,173.75,1130,182.75" style="stroke:#181818;stroke-width:1.0;"/><text fill="#000000" font-family="sans-serif" font-size="13" lengthAdjust="spacing" textLength="81" x="1131" y="149.097">dcat:resource</text></g><!--SRC=[lLLTJzim57tFhuZwNYHU8uH4WKbeC5Z7Vi2jVTDQZUrWEuLgst_VjPsqTjk0qAJroRttvFZSJwy4nn9bwxQbHBb0Omkx5ge50x9a3LXR_YfA-is0hPT6TufVwqQRYujP0shzJNDyD7VpkylBydKb71P_YY9-Dk4CN7K33YowIGcsvF7S4tBcq4XRaG3bH2tGb6-MLzOPePRb-TdPUGRZQ9aHhHDQZU3ejWtfJm0PWQCejO4cE45jCwTjmOaHdzJSo-F1IJ6CnVW3ZK0R8hNXcAEk2TNePV2pUCuJuOHhyDqS_5Eg4jMrXhgwMX9PK0F-L1vNDCeBO0KobLPaAOYttWk6oc9WRE9vb7Civ8Hsmy3mwgjGF31IJ_9HkeXTWRsL8FP5FA5HK-OfBL5a_sUKrgwrhLg3zJqii3ajCpQ0yFP5jwFcYU6pxKvym1XQ-tD-NnfULtEqkZCCZmjTQoF17JJjyHXunUytT19G2FfQAuPjx0uMpvyBOpHr1n2EjL32dH0RtFW6iiqxPEU3nXtL9ItCowPwG3Ap48KCn_yTX1U1RotIVTnlYUTjYrbDToYXReIacV4a6U2uYPzekMZ-M3_J1o6sDXXqxSWmsipUwKTaXakXb0yYRPl1UwlugV4XWTyxQ8JRFY3Opg0STiTBDCkz-PFzJjGRQ3hCvBH6RohQIcYeE_cLyw7kkjN_2PKUtfFfz3AVkAgVozGuoU7zcP3XhbUmDvJ53V8lHiiSEmp0mEfM56SEYHkqYlwsMpJ2hj3acB311WxYTC3SanQKnmmshCxgQB6ciAparRutXaVkW7FOT0coV_4c-pHU_9vETozN-dcqxRGBrRzqHN6Y-WVPzVLbMhOTrV6HYZ3oHJ-U_GV9CD0b_MFvKNPIs5WzKamgqiDCFt5qury0]--></g></svg>